<svg width="4097" height="2492" xmlns="http://www.w3.org/2000/svg" xmlns:xlink="http://www.w3.org/1999/xlink" xml:space="preserve" overflow="hidden"><g transform="translate(22 -1184)"><path d="M191.5 1357.88C191.5 1263.23 268.231 1186.5 362.884 1186.5L1694.12 1186.5C1788.77 1186.5 1865.5 1263.23 1865.5 1357.88L1865.5 3502.12C1865.5 3596.77 1788.77 3673.5 1694.12 3673.5L362.884 3673.5C268.231 3673.5 191.5 3596.77 191.5 3502.12Z" stroke="#000000" stroke-width="4.58333" stroke-miterlimit="8" fill="#E6E6E6" fill-rule="evenodd"/><path d="M1923.5 1728.17C1923.5 1712.89 1935.89 1700.5 1951.17 1700.5L2636.83 1700.5C2652.11 1700.5 2664.5 1712.89 2664.5 1728.17L2664.5 1838.83C2664.5 1854.11 2652.11 1866.5 2636.83 1866.5L1951.17 1866.5C1935.89 1866.5 1923.5 1854.11 1923.5 1838.83Z" stroke="#000000" stroke-width="4.58333" stroke-miterlimit="8" fill="#F5B482" fill-rule="evenodd"/><path d="M2780.5 1299.8C2780.5 1237.78 2830.78 1187.5 2892.8 1187.5L3960.2 1187.5C4022.22 1187.5 4072.5 1237.78 4072.5 1299.8L4072.5 3541.2C4072.5 3603.22 4022.22 3653.5 3960.2 3653.5L2892.8 3653.5C2830.78 3653.5 2780.5 3603.22 2780.5 3541.2Z" stroke="#000000" stroke-width="4.58333" stroke-miterlimit="8" fill="#E7E6E6" fill-rule="evenodd"/><text font-family="Arial,Arial_MSFontService,sans-serif" font-weight="400" font-size="46" transform="matrix(1 0 0 1 2892.77 1482)">prior_formulas &lt;</text><text font-family="Arial,Arial_MSFontService,sans-serif" font-weight="400" font-size="46" transform="matrix(1 0 0 1 3224.49 1482)">-</text><text font-family="Arial,Arial_MSFontService,sans-serif" font-weight="400" font-size="46" transform="matrix(1 0 0 1 3252.56 1482)">list(</text><text font-family="Arial,Arial_MSFontService,sans-serif" font-weight="400" font-size="46" transform="matrix(1 0 0 1 2917.98 1537)">n_items ~ 10,</text><text font-family="Arial,Arial_MSFontService,sans-serif" font-weight="400" font-size="46" transform="matrix(1 0 0 1 2917.98 1647)">A_beta_0 ~ distributional::dist_uniform(1.00,5.00),</text><text font-family="Arial,Arial_MSFontService,sans-serif" font-weight="400" font-size="46" transform="matrix(1 0 0 1 2917.98 1702)">A_beta_1 ~ distributional::dist_uniform(0.1, 5.0),</text><text font-family="Arial,Arial_MSFontService,sans-serif" font-weight="400" font-size="46" transform="matrix(1 0 0 1 2917.98 1757)">V_beta_0 ~ distributional::dist_uniform(0.1, 1.0),</text><text font-family="Arial,Arial_MSFontService,sans-serif" font-weight="400" font-size="46" transform="matrix(1 0 0 1 2917.98 1812)">V_beta_1 ~ distributional::dist_uniform(</text><text font-family="Arial,Arial_MSFontService,sans-serif" font-weight="400" font-size="46" transform="matrix(1 0 0 1 3709.75 1812)">-</text><text font-family="Arial,Arial_MSFontService,sans-serif" font-weight="400" font-size="46" transform="matrix(1 0 0 1 3725.22 1812)">0.01, </text><text font-family="Arial,Arial_MSFontService,sans-serif" font-weight="400" font-size="46" transform="matrix(1 0 0 1 3838.66 1812)">-</text><text font-family="Arial,Arial_MSFontService,sans-serif" font-weight="400" font-size="46" transform="matrix(1 0 0 1 3854.12 1812)">0.1),</text><text font-family="Arial,Arial_MSFontService,sans-serif" font-weight="400" font-size="46" transform="matrix(1 0 0 1 2917.98 1867)">ndt_mu ~ distributional::dist_uniform(</text><text font-family="Arial,Arial_MSFontService,sans-serif" font-weight="400" font-size="46" transform="matrix(1 0 0 1 3667.35 1867)">-</text><text font-family="Arial,Arial_MSFontService,sans-serif" font-weight="400" font-size="46" transform="matrix(1 0 0 1 3682.82 1867)">1.0, 1.0),</text><text font-family="Arial,Arial_MSFontService,sans-serif" font-weight="400" font-size="46" transform="matrix(1 0 0 1 2917.98 1922)">ndt_sigma ~ distributional::dist_uniform(0.01, 0.5))</text><text font-family="Arial,Arial_MSFontService,sans-serif" font-weight="400" font-size="46" transform="matrix(1 0 0 1 2892.77 2032)">between_trial_formulas &lt;</text><text font-family="Arial,Arial_MSFontService,sans-serif" font-weight="400" font-size="46" transform="matrix(1 0 0 1 3403.81 2032)">-</text><text font-family="Arial,Arial_MSFontService,sans-serif" font-weight="400" font-size="46" transform="matrix(1 0 0 1 3431.89 2032)">list(</text><text font-family="Arial,Arial_MSFontService,sans-serif" font-weight="400" font-size="46" transform="matrix(1 0 0 1 2917.98 2087)">ndt ~ distributional::dist_normal(ndt_mu,ndt_sigma))</text><text font-family="Arial,Arial_MSFontService,sans-serif" font-weight="400" font-size="46" transform="matrix(1 0 0 1 2892.77 2197)">item_formulas &lt;</text><text font-family="Arial,Arial_MSFontService,sans-serif" font-weight="400" font-size="46" transform="matrix(1 0 0 1 3219.33 2197)">-</text><text font-family="Arial,Arial_MSFontService,sans-serif" font-weight="400" font-size="46" transform="matrix(1 0 0 1 3247.41 2197)">list(</text><text font-family="Arial,Arial_MSFontService,sans-serif" font-weight="400" font-size="46" transform="matrix(1 0 0 1 2917.98 2252)">A ~ A_beta_0 + seq(0, n_items</text><text font-family="Arial,Arial_MSFontService,sans-serif" font-weight="400" font-size="46" transform="matrix(1 0 0 1 3545.9 2252)">-</text><text font-family="Arial,Arial_MSFontService,sans-serif" font-weight="400" font-size="46" transform="matrix(1 0 0 1 3561.36 2252)">1) * A_beta_1,</text><text font-family="Arial,Arial_MSFontService,sans-serif" font-weight="400" font-size="46" transform="matrix(1 0 0 1 2917.98 2307)">V ~ V_beta_0 + seq(0, n_items</text><text font-family="Arial,Arial_MSFontService,sans-serif" font-weight="400" font-size="46" transform="matrix(1 0 0 1 3545.9 2307)">-</text><text font-family="Arial,Arial_MSFontService,sans-serif" font-weight="400" font-size="46" transform="matrix(1 0 0 1 3561.36 2307)">1) * V_beta_1)</text><text font-family="Arial,Arial_MSFontService,sans-serif" font-weight="400" font-size="46" transform="matrix(1 0 0 1 2892.77 2417)">noise_factory &lt;</text><text font-family="Arial,Arial_MSFontService,sans-serif" font-weight="400" font-size="46" transform="matrix(1 0 0 1 3203.29 2417)">-</text><text font-family="Arial,Arial_MSFontService,sans-serif" font-weight="400" font-size="46" transform="matrix(1 0 0 1 3231.36 2417)">function(context) {</text><text font-family="Arial,Arial_MSFontService,sans-serif" font-weight="400" font-size="46" transform="matrix(1 0 0 1 2917.98 2472)">function(n, dt) {</text><text font-family="Arial,Arial_MSFontService,sans-serif" font-weight="400" font-size="46" transform="matrix(1 0 0 1 2943.19 2527)">rnorm(n, mean = 0, sd = sqrt(dt))}}</text><text font-family="Arial,Arial_MSFontService,sans-serif" font-weight="400" font-size="46" transform="matrix(1 0 0 1 2892.77 2637)">sim_config &lt;</text><text font-family="Arial,Arial_MSFontService,sans-serif" font-weight="400" font-size="46" transform="matrix(1 0 0 1 3150.58 2637)">-</text><text font-family="Arial,Arial_MSFontService,sans-serif" font-weight="400" font-size="46" transform="matrix(1 0 0 1 3178.66 2637)">new_simulation_config(</text><text font-family="Arial,Arial_MSFontService,sans-serif" font-weight="400" font-size="46" transform="matrix(1 0 0 1 2917.98 2692)">prior_formulas = prior_formulas,</text><text font-family="Arial,Arial_MSFontService,sans-serif" font-weight="400" font-size="46" transform="matrix(1 0 0 1 2917.98 2747)">between_trial_formulas = between_trial_formulas,</text><text font-family="Arial,Arial_MSFontService,sans-serif" font-weight="400" font-size="46" transform="matrix(1 0 0 1 2917.98 2802)">item_formulas = item_formulas,</text><text font-family="Arial,Arial_MSFontService,sans-serif" font-weight="400" font-size="46" transform="matrix(1 0 0 1 2917.98 2857)">n_conditions_per_chunk = 100,</text><text font-family="Arial,Arial_MSFontService,sans-serif" font-weight="400" font-size="46" transform="matrix(1 0 0 1 2917.98 2912)">n_condition = 5000,</text><text font-family="Arial,Arial_MSFontService,sans-serif" font-weight="400" font-size="46" transform="matrix(1 0 0 1 2917.98 2967)">n_trials_per_condition = 200, </text><text font-family="Arial,Arial_MSFontService,sans-serif" font-weight="400" font-size="46" transform="matrix(1 0 0 1 2917.98 3077)">n_items = n_items,</text><text font-family="Arial,Arial_MSFontService,sans-serif" font-weight="400" font-size="46" transform="matrix(1 0 0 1 2917.98 3132)">max_reached = 5,</text><text font-family="Arial,Arial_MSFontService,sans-serif" font-weight="400" font-size="46" transform="matrix(1 0 0 1 2917.98 3187)">max_t = 60,</text><text font-family="Arial,Arial_MSFontService,sans-serif" font-weight="400" font-size="46" transform="matrix(1 0 0 1 2917.98 3297)">dt = 0.001,</text><text font-family="Arial,Arial_MSFontService,sans-serif" font-weight="400" font-size="46" transform="matrix(1 0 0 1 2917.98 3407)">noise_mechanism = "add",</text><text font-family="Arial,Arial_MSFontService,sans-serif" font-weight="400" font-size="46" transform="matrix(1 0 0 1 2917.98 3462)">noise_factory = noise_factory,</text><text font-family="Arial,Arial_MSFontService,sans-serif" font-weight="400" font-size="46" transform="matrix(1 0 0 1 2917.98 3572)">model = "ddm" # or rdm, lca)</text><path d="M2872.5 1501.33C2872.5 1495.35 2877.35 1490.5 2883.33 1490.5L3985.67 1490.5C3991.65 1490.5 3996.5 1495.35 3996.5 1501.33L3996.5 1544.67C3996.5 1550.65 3991.65 1555.5 3985.67 1555.5L2883.33 1555.5C2877.35 1555.5 2872.5 1550.65 2872.5 1544.67Z" stroke="#C65F10" stroke-width="4.58333" stroke-miterlimit="8" fill="none" fill-rule="evenodd"/><path d="M3.97897e-06-2.29167 203.317-2.29131 203.317 2.29202-3.97897e-06 2.29167ZM176.971-18.0209 207.865 0.000360232 176.971 18.0215C175.878 18.6592 174.475 18.2899 173.837 17.1967 173.199 16.1034 173.569 14.7002 174.662 14.0625L202.162-1.97914 202.162 1.97984 174.662-14.0619C173.569-14.6996 173.199-16.1028 173.837-17.1961 174.475-18.2893 175.878-18.6586 176.971-18.0209Z" fill="#C65F10" transform="matrix(-1 0 0 1 2872.35 1523.5)"/><path d="M2872.5 1613.4C2872.5 1596.33 2886.33 1582.5 2903.4 1582.5L3965.6 1582.5C3982.67 1582.5 3996.5 1596.33 3996.5 1613.4L3996.5 1922.6C3996.5 1939.67 3982.67 1953.5 3965.6 1953.5L2903.4 1953.5C2886.33 1953.5 2872.5 1939.67 2872.5 1922.6Z" stroke="#C65F10" stroke-width="4.58333" stroke-miterlimit="8" fill="none" fill-rule="evenodd"/><path d="M3.97897e-06-2.29167 203.317-2.29131 203.317 2.29202-3.97897e-06 2.29167ZM176.971-18.0209 207.865 0.000360232 176.971 18.0215C175.878 18.6592 174.475 18.2899 173.837 17.1967 173.199 16.1034 173.569 14.7002 174.662 14.0625L202.162-1.97914 202.162 1.97984 174.662-14.0619C173.569-14.6996 173.199-16.1028 173.837-17.1961 174.475-18.2893 175.878-18.6586 176.971-18.0209Z" fill="#C65F10" transform="matrix(-1 0 0 1 2872.35 1774.5)"/><text font-family="Arial,Arial_MSFontService,sans-serif" font-weight="400" font-size="55" transform="matrix(1 0 0 1 2062.96 1776)">Prior distributions of </text><text font-family="Arial,Arial_MSFontService,sans-serif" font-weight="400" font-size="55" transform="matrix(1 0 0 1 2098.18 1842)">hyperparatemers</text><path d="M1923.5 1484.17C1923.5 1472.75 1932.75 1463.5 1944.17 1463.5L2643.83 1463.5C2655.25 1463.5 2664.5 1472.75 2664.5 1484.17L2664.5 1566.83C2664.5 1578.25 2655.25 1587.5 2643.83 1587.5L1944.17 1587.5C1932.75 1587.5 1923.5 1578.25 1923.5 1566.83Z" stroke="#000000" stroke-width="4.58333" stroke-miterlimit="8" fill="#F5B482" fill-rule="evenodd"/><text font-family="Arial,Arial_MSFontService,sans-serif" font-weight="400" font-size="55" transform="matrix(1 0 0 1 2020.39 1546)">Number of accumulator</text><path d="M2872.5 2002C2872.5 1987.92 2883.92 1976.5 2898 1976.5L3971 1976.5C3985.08 1976.5 3996.5 1987.92 3996.5 2002L3996.5 2104C3996.5 2118.08 3985.08 2129.5 3971 2129.5L2898 2129.5C2883.92 2129.5 2872.5 2118.08 2872.5 2104Z" stroke="#C65F10" stroke-width="4.58333" stroke-miterlimit="8" fill="none" fill-rule="evenodd"/><path d="M1923.5 2017.17C1923.5 2007.41 1931.41 1999.5 1941.17 1999.5L2646.83 1999.5C2656.59 1999.5 2664.5 2007.41 2664.5 2017.17L2664.5 2087.83C2664.5 2097.59 2656.59 2105.5 2646.83 2105.5L1941.17 2105.5C1931.41 2105.5 1923.5 2097.59 1923.5 2087.83Z" stroke="#000000" stroke-width="4.58333" stroke-miterlimit="8" fill="#F5B482" fill-rule="evenodd"/><path d="M3.97897e-06-2.29167 203.317-2.29131 203.317 2.29202-3.97897e-06 2.29167ZM176.971-18.0209 207.865 0.000360232 176.971 18.0215C175.878 18.6592 174.475 18.2899 173.837 17.1967 173.199 16.1034 173.569 14.7002 174.662 14.0625L202.162-1.97914 202.162 1.97984 174.662-14.0619C173.569-14.6996 173.199-16.1028 173.837-17.1961 174.475-18.2893 175.878-18.6586 176.971-18.0209Z" fill="#C65F10" transform="matrix(-1 0 0 1 2872.35 2053.5)"/><text font-family="Arial,Arial_MSFontService,sans-serif" font-weight="400" font-size="55" transform="matrix(1 0 0 1 2025.15 2075)">Between trial variability</text><path d="M1923.5 2210.17C1923.5 2200.41 1931.41 2192.5 1941.17 2192.5L2646.83 2192.5C2656.59 2192.5 2664.5 2200.41 2664.5 2210.17L2664.5 2280.83C2664.5 2290.59 2656.59 2298.5 2646.83 2298.5L1941.17 2298.5C1931.41 2298.5 1923.5 2290.59 1923.5 2280.83Z" stroke="#000000" stroke-width="4.58333" stroke-miterlimit="8" fill="#F5B482" fill-rule="evenodd"/><path d="M3.97897e-06-2.29167 203.317-2.29131 203.317 2.29202-3.97897e-06 2.29167ZM176.971-18.0209 207.865 0.000360232 176.971 18.0215C175.878 18.6592 174.475 18.2899 173.837 17.1967 173.199 16.1034 173.569 14.7002 174.662 14.0625L202.162-1.97914 202.162 1.97984 174.662-14.0619C173.569-14.6996 173.199-16.1028 173.837-17.1961 174.475-18.2893 175.878-18.6586 176.971-18.0209Z" fill="#C65F10" transform="matrix(-1 0 0 1 2872.35 2247.5)"/><text font-family="Arial,Arial_MSFontService,sans-serif" font-weight="400" font-size="55" transform="matrix(1 0 0 1 2088.97 2268)">Item level formula</text><path d="M2872.5 2182.17C2872.5 2165.23 2886.23 2151.5 2903.17 2151.5L3965.83 2151.5C3982.77 2151.5 3996.5 2165.23 3996.5 2182.17L3996.5 2304.83C3996.5 2321.77 3982.77 2335.5 3965.83 2335.5L2903.17 2335.5C2886.23 2335.5 2872.5 2321.77 2872.5 2304.83Z" stroke="#C65F10" stroke-width="4.58333" stroke-miterlimit="8" fill="none" fill-rule="evenodd"/><path d="M2872.5 2395.33C2872.5 2378.31 2886.3 2364.5 2903.33 2364.5L3965.67 2364.5C3982.69 2364.5 3996.5 2378.31 3996.5 2395.33L3996.5 2518.67C3996.5 2535.7 3982.69 2549.5 3965.67 2549.5L2903.33 2549.5C2886.3 2549.5 2872.5 2535.7 2872.5 2518.67Z" stroke="#C65F10" stroke-width="4.58333" stroke-miterlimit="8" fill="none" fill-rule="evenodd"/><path d="M1923.5 2418.33C1923.5 2408.48 1931.48 2400.5 1941.33 2400.5L2646.67 2400.5C2656.52 2400.5 2664.5 2408.48 2664.5 2418.33L2664.5 2489.67C2664.5 2499.52 2656.52 2507.5 2646.67 2507.5L1941.33 2507.5C1931.48 2507.5 1923.5 2499.52 1923.5 2489.67Z" stroke="#000000" stroke-width="4.58333" stroke-miterlimit="8" fill="#F5B482" fill-rule="evenodd"/><path d="M3.97897e-06-2.29167 203.317-2.29131 203.317 2.29202-3.97897e-06 2.29167ZM176.971-18.0209 207.865 0.000360232 176.971 18.0215C175.878 18.6592 174.475 18.2899 173.837 17.1967 173.199 16.1034 173.569 14.7002 174.662 14.0625L202.162-1.97914 202.162 1.97984 174.662-14.0619C173.569-14.6996 173.199-16.1028 173.837-17.1961 174.475-18.2893 175.878-18.6586 176.971-18.0209Z" fill="#C65F10" transform="matrix(-1 0 0 1 2872.35 2455.5)"/><text font-family="Arial,Arial_MSFontService,sans-serif" font-weight="400" font-size="55" transform="matrix(1 0 0 1 2142.33 2477)">Type of noise</text><path d="M2872.5 2621.61C2872.5 2606.64 2884.64 2594.5 2899.61 2594.5L3969.39 2594.5C3984.36 2594.5 3996.5 2606.64 3996.5 2621.61L3996.5 2955.39C3996.5 2970.36 3984.36 2982.5 3969.39 2982.5L2899.61 2982.5C2884.64 2982.5 2872.5 2970.36 2872.5 2955.39Z" stroke="#C65F10" stroke-width="4.58333" stroke-miterlimit="8" fill="none" fill-rule="evenodd"/><path d="M1923.5 2709.5C1923.5 2687.41 1941.41 2669.5 1963.5 2669.5L2624.5 2669.5C2646.59 2669.5 2664.5 2687.41 2664.5 2709.5L2664.5 2869.5C2664.5 2891.59 2646.59 2909.5 2624.5 2909.5L1963.5 2909.5C1941.41 2909.5 1923.5 2891.59 1923.5 2869.5Z" stroke="#000000" stroke-width="4.58333" stroke-miterlimit="8" fill="#F5B482" fill-rule="evenodd"/><path d="M3.97897e-06-2.29167 203.317-2.29131 203.317 2.29202-3.97897e-06 2.29167ZM176.971-18.0209 207.865 0.000360232 176.971 18.0215C175.878 18.6592 174.475 18.2899 173.837 17.1967 173.199 16.1034 173.569 14.7002 174.662 14.0625L202.162-1.97914 202.162 1.97984 174.662-14.0619C173.569-14.6996 173.199-16.1028 173.837-17.1961 174.475-18.2893 175.878-18.6586 176.971-18.0209Z" fill="#C65F10" transform="matrix(-1 0 0 1 2872.35 2780.5)"/><text font-family="Arial,Arial_MSFontService,sans-serif" font-weight="400" font-size="55" transform="matrix(1 0 0 1 2089.25 2745)">Simulation setting </text><text font-family="Arial,Arial_MSFontService,sans-serif" font-weight="400" font-size="55" transform="matrix(1 0 0 1 2034.26 2811)">(number of conditions, </text><text font-family="Arial,Arial_MSFontService,sans-serif" font-weight="400" font-size="55" transform="matrix(1 0 0 1 2107.29 2877)">number of trials)</text><path d="M2872.5 3052.83C2872.5 3036.08 2886.08 3022.5 2902.83 3022.5L3966.17 3022.5C3982.92 3022.5 3996.5 3036.08 3996.5 3052.83L3996.5 3174.17C3996.5 3190.92 3982.92 3204.5 3966.17 3204.5L2902.83 3204.5C2886.08 3204.5 2872.5 3190.92 2872.5 3174.17Z" stroke="#C65F10" stroke-width="4.58333" stroke-miterlimit="8" fill="none" fill-rule="evenodd"/><path d="M1923.5 3054.33C1923.5 3044.48 1931.48 3036.5 1941.33 3036.5L2646.67 3036.5C2656.52 3036.5 2664.5 3044.48 2664.5 3054.33L2664.5 3125.67C2664.5 3135.52 2656.52 3143.5 2646.67 3143.5L1941.33 3143.5C1931.48 3143.5 1923.5 3135.52 1923.5 3125.67Z" stroke="#000000" stroke-width="4.58333" stroke-miterlimit="8" fill="#F5B482" fill-rule="evenodd"/><path d="M3.97897e-06-2.29167 203.317-2.29131 203.317 2.29202-3.97897e-06 2.29167ZM176.971-18.0209 207.865 0.000360232 176.971 18.0215C175.878 18.6592 174.475 18.2899 173.837 17.1967 173.199 16.1034 173.569 14.7002 174.662 14.0625L202.162-1.97914 202.162 1.97984 174.662-14.0619C173.569-14.6996 173.199-16.1028 173.837-17.1961 174.475-18.2893 175.878-18.6586 176.971-18.0209Z" fill="#C65F10" transform="matrix(-1 0 0 1 2872.35 3091.5)"/><text font-family="Arial,Arial_MSFontService,sans-serif" font-weight="400" font-size="55" transform="matrix(1 0 0 1 1959.43 3113)">Rules to record responses</text><path d="M2872.5 3261.5C2872.5 3255.43 2877.42 3250.5 2883.5 3250.5L3985.5 3250.5C3991.57 3250.5 3996.5 3255.43 3996.5 3261.5L3996.5 3305.5C3996.5 3311.57 3991.57 3316.5 3985.5 3316.5L2883.5 3316.5C2877.42 3316.5 2872.5 3311.57 2872.5 3305.5Z" stroke="#C65F10" stroke-width="4.58333" stroke-miterlimit="8" fill="none" fill-rule="evenodd"/><path d="M1923.5 3247.33C1923.5 3237.48 1931.48 3229.5 1941.33 3229.5L2646.67 3229.5C2656.52 3229.5 2664.5 3237.48 2664.5 3247.33L2664.5 3318.67C2664.5 3328.52 2656.52 3336.5 2646.67 3336.5L1941.33 3336.5C1931.48 3336.5 1923.5 3328.52 1923.5 3318.67Z" stroke="#000000" stroke-width="4.58333" stroke-miterlimit="8" fill="#F5B482" fill-rule="evenodd"/><path d="M3.97897e-06-2.29167 203.317-2.29131 203.317 2.29202-3.97897e-06 2.29167ZM176.971-18.0209 207.865 0.000360232 176.971 18.0215C175.878 18.6592 174.475 18.2899 173.837 17.1967 173.199 16.1034 173.569 14.7002 174.662 14.0625L202.162-1.97914 202.162 1.97984 174.662-14.0619C173.569-14.6996 173.199-16.1028 173.837-17.1961 174.475-18.2893 175.878-18.6586 176.971-18.0209Z" fill="#C65F10" transform="matrix(-1 0 0 1 2872.35 3284.5)"/><text font-family="Arial,Arial_MSFontService,sans-serif" font-weight="400" font-size="55" transform="matrix(1 0 0 1 2159.83 3306)">Time step</text><path d="M2872.5 3381.67C2872.5 3371.08 2881.08 3362.5 2891.67 3362.5L3977.33 3362.5C3987.92 3362.5 3996.5 3371.08 3996.5 3381.67L3996.5 3458.33C3996.5 3468.92 3987.92 3477.5 3977.33 3477.5L2891.67 3477.5C2881.08 3477.5 2872.5 3468.92 2872.5 3458.33Z" stroke="#C65F10" stroke-width="4.58333" stroke-miterlimit="8" fill="none" fill-rule="evenodd"/><path d="M1923.5 3384.17C1923.5 3374.41 1931.41 3366.5 1941.17 3366.5L2646.83 3366.5C2656.59 3366.5 2664.5 3374.41 2664.5 3384.17L2664.5 3454.83C2664.5 3464.59 2656.59 3472.5 2646.83 3472.5L1941.17 3472.5C1931.41 3472.5 1923.5 3464.59 1923.5 3454.83Z" stroke="#000000" stroke-width="4.58333" stroke-miterlimit="8" fill="#F5B482" fill-rule="evenodd"/><path d="M3.97897e-06-2.29167 203.317-2.29131 203.317 2.29202-3.97897e-06 2.29167ZM176.971-18.0209 207.865 0.000360232 176.971 18.0215C175.878 18.6592 174.475 18.2899 173.837 17.1967 173.199 16.1034 173.569 14.7002 174.662 14.0625L202.162-1.97914 202.162 1.97984 174.662-14.0619C173.569-14.6996 173.199-16.1028 173.837-17.1961 174.475-18.2893 175.878-18.6586 176.971-18.0209Z" fill="#C65F10" transform="matrix(-1 0 0 1 2872.35 3420.5)"/><text font-family="Arial,Arial_MSFontService,sans-serif" font-weight="400" font-size="55" transform="matrix(1 0 0 1 2120.99 3442)">Noise setting</text><path d="M2872.5 3538.5C2872.5 3531.87 2877.87 3526.5 2884.5 3526.5L3984.5 3526.5C3991.13 3526.5 3996.5 3531.87 3996.5 3538.5L3996.5 3586.5C3996.5 3593.13 3991.13 3598.5 3984.5 3598.5L2884.5 3598.5C2877.87 3598.5 2872.5 3593.13 2872.5 3586.5Z" stroke="#C65F10" stroke-width="4.58333" stroke-miterlimit="8" fill="none" fill-rule="evenodd"/><path d="M1923.5 3526.17C1923.5 3516.41 1931.41 3508.5 1941.17 3508.5L2646.83 3508.5C2656.59 3508.5 2664.5 3516.41 2664.5 3526.17L2664.5 3596.83C2664.5 3606.59 2656.59 3614.5 2646.83 3614.5L1941.17 3614.5C1931.41 3614.5 1923.5 3606.59 1923.5 3596.83Z" stroke="#000000" stroke-width="4.58333" stroke-miterlimit="8" fill="#F5B482" fill-rule="evenodd"/><path d="M3.97897e-06-2.29167 203.317-2.29131 203.317 2.29202-3.97897e-06 2.29167ZM176.971-18.0209 207.865 0.000360232 176.971 18.0215C175.878 18.6592 174.475 18.2899 173.837 17.1967 173.199 16.1034 173.569 14.7002 174.662 14.0625L202.162-1.97914 202.162 1.97984 174.662-14.0619C173.569-14.6996 173.199-16.1028 173.837-17.1961 174.475-18.2893 175.878-18.6586 176.971-18.0209Z" fill="#C65F10" transform="matrix(-1 0 0 1 2872.35 3563.5)"/><text font-family="Arial,Arial_MSFontService,sans-serif" font-weight="400" font-size="55" transform="matrix(1 0 0 1 2107.04 3584)">Type of model</text><path d="M2.29167-3.18144e-06 2.29202 255.422-2.29131 255.422-2.29167 3.18144e-06ZM18.0215 229.076 0.00036087 259.97-18.0208 229.076C-18.6586 227.983-18.2893 226.58-17.1961 225.942-16.1028 225.304-14.6996 225.674-14.0619 226.767L1.97985 254.267-1.97914 254.267 14.0625 226.767C14.7002 225.674 16.1034 225.304 17.1967 225.942 18.2899 226.58 18.6592 227.983 18.0215 229.076Z" transform="matrix(1 0 0 -1 1539.5 1676.46)"/><path d="M1539.51 1674.21 1807.69 1675.89 1807.66 1680.47 1539.49 1678.79ZM1781.44 1660 1812.22 1678.21 1781.21 1696.04C1780.12 1696.67 1778.72 1696.29 1778.08 1695.19 1777.45 1694.1 1777.83 1692.69 1778.93 1692.06L1806.53 1676.2 1806.5 1680.15 1779.11 1663.94C1778.02 1663.3 1777.66 1661.89 1778.3 1660.8 1778.94 1659.71 1780.35 1659.35 1781.44 1660Z"/><rect x="1540" y="1544" width="196" height="129" fill="#ACD78E"/><text font-family="Arial,Arial_MSFontService,sans-serif" font-weight="400" font-size="55" transform="matrix(1 0 0 1 1515.65 1789)">Non</text><text font-family="Arial,Arial_MSFontService,sans-serif" font-weight="400" font-size="55" transform="matrix(1 0 0 1 1615.91 1789)">-</text><text font-family="Arial,Arial_MSFontService,sans-serif" font-weight="400" font-size="55" transform="matrix(1 0 0 1 1634.24 1789)">decision</text><text font-family="Arial,Arial_MSFontService,sans-serif" font-weight="400" font-size="55" transform="matrix(1 0 0 1 1516.11 1855)">time SD </text><path d="M1774.77 1820.62C1773.98 1820.62 1773.13 1820.65 1772.22 1820.7L1765.26 1852.47C1765.78 1852.53 1766.77 1852.55 1768.24 1852.55 1771.14 1852.55 1773.6 1852.05 1775.63 1851.04 1777.65 1850.02 1779.4 1848.44 1780.86 1846.28 1782.33 1844.13 1783.42 1841.85 1784.11 1839.46 1784.81 1837.07 1785.16 1834.55 1785.16 1831.9 1785.16 1828.16 1784.29 1825.34 1782.54 1823.46 1780.8 1821.57 1778.21 1820.62 1774.77 1820.62ZM1764.51 1818.29 1774.69 1818.29C1777.39 1818.29 1779.58 1818.49 1781.27 1818.9 1782.95 1819.32 1784.52 1820.06 1785.98 1821.13 1787.44 1822.21 1788.54 1823.63 1789.27 1825.42 1790 1827.2 1790.37 1829.31 1790.37 1831.74 1790.37 1834.16 1790.09 1836.47 1789.54 1838.67 1788.98 1840.87 1788.19 1842.9 1787.15 1844.75 1786.11 1846.6 1784.87 1848.22 1783.42 1849.59 1781.97 1850.96 1780.56 1852.01 1779.2 1852.74 1777.84 1853.48 1776.32 1854.03 1774.63 1854.39 1772.95 1854.76 1770.99 1854.94 1768.75 1854.94L1757.47 1854.94 1757.77 1853.63C1758.45 1853.52 1758.96 1853.35 1759.3 1853.1 1759.64 1852.86 1759.93 1852.53 1760.16 1852.1 1760.39 1851.67 1760.61 1851.14 1760.8 1850.53 1761 1849.91 1761.3 1848.71 1761.69 1846.94L1766.26 1826.26C1766.65 1824.47 1766.85 1823.03 1766.85 1821.94 1766.85 1821.1 1766.64 1820.51 1766.21 1820.18 1765.79 1819.85 1765.13 1819.66 1764.21 1819.6ZM1746.01 1817.86C1747.66 1817.86 1749.18 1817.97 1750.59 1818.19 1751.99 1818.42 1753.55 1818.8 1755.25 1819.33L1753.74 1826.24 1751.17 1826.24C1751.09 1824.71 1750.86 1823.52 1750.47 1822.65 1750.07 1821.78 1749.51 1821.16 1748.78 1820.78 1748.04 1820.41 1747.07 1820.22 1745.85 1820.22 1744.36 1820.22 1743.06 1820.52 1741.93 1821.13 1740.8 1821.74 1739.94 1822.57 1739.35 1823.62 1738.76 1824.66 1738.46 1825.83 1738.46 1827.12 1738.46 1828.46 1738.82 1829.64 1739.52 1830.65 1740.23 1831.66 1741.59 1832.86 1743.59 1834.24 1745.35 1835.46 1746.69 1836.54 1747.61 1837.5 1748.53 1838.46 1749.21 1839.47 1749.65 1840.55 1750.09 1841.62 1750.31 1842.87 1750.31 1844.28 1750.31 1846.47 1749.78 1848.4 1748.74 1850.1 1747.69 1851.79 1746.21 1853.1 1744.3 1854.02 1742.4 1854.94 1740.23 1855.4 1737.79 1855.4 1736.15 1855.4 1734.37 1855.27 1732.46 1855 1730.55 1854.73 1728.85 1854.39 1727.35 1853.98L1728.96 1846.59 1731.53 1846.59C1731.53 1848.78 1732.04 1850.4 1733.05 1851.47 1734.06 1852.53 1735.63 1853.06 1737.74 1853.06 1740.17 1853.06 1742.09 1852.4 1743.49 1851.08 1744.88 1849.75 1745.58 1847.91 1745.58 1845.54 1745.58 1844.45 1745.39 1843.49 1745 1842.66 1744.62 1841.82 1744.04 1841.03 1743.26 1840.27 1742.48 1839.51 1741.35 1838.63 1739.89 1837.65 1738.56 1836.75 1737.46 1835.87 1736.58 1835 1735.71 1834.14 1735.01 1833.16 1734.49 1832.09 1733.97 1831.02 1733.71 1829.82 1733.71 1828.49 1733.71 1826.38 1734.22 1824.52 1735.24 1822.91 1736.26 1821.29 1737.7 1820.05 1739.56 1819.17 1741.43 1818.29 1743.57 1817.86 1746.01 1817.86Z" fill-rule="evenodd"/><text fill="#000000" fill-opacity="0" font-family="Arial,Arial_MSFontService,sans-serif" font-size="37.5439" x="1727.35" y="1850.71">洧녡洧냥</text><path d="M1820.32 1842.77C1819.41 1842.77 1818.65 1843.01 1818.04 1843.49 1817.43 1843.96 1816.94 1844.66 1816.58 1845.58 1816.23 1846.5 1815.97 1847.61 1815.82 1848.94 1815.67 1850.26 1815.6 1851.76 1815.6 1853.44 1815.6 1855.38 1815.69 1857.06 1815.88 1858.47 1816.07 1859.88 1816.36 1861.04 1816.76 1861.95 1817.16 1862.87 1817.66 1863.54 1818.25 1863.97 1818.85 1864.4 1819.57 1864.61 1820.4 1864.61 1821.18 1864.61 1821.87 1864.41 1822.45 1864 1823.04 1863.6 1823.52 1862.97 1823.91 1862.12 1824.29 1861.27 1824.58 1860.19 1824.78 1858.88 1824.97 1857.57 1825.07 1856.02 1825.07 1854.24 1825.07 1852.23 1824.96 1850.51 1824.75 1849.06 1824.53 1847.62 1824.23 1846.43 1823.84 1845.5 1823.45 1844.57 1822.96 1843.88 1822.37 1843.44 1821.77 1843 1821.09 1842.77 1820.32 1842.77ZM1799.14 1841.68 1802.19 1841.68 1801.07 1846.64 1807.72 1846.64 1807.27 1848.81 1800.64 1848.81 1798.65 1856.99C1798.52 1857.54 1798.42 1858.03 1798.33 1858.47 1798.25 1858.9 1798.18 1859.3 1798.13 1859.65 1798.07 1860 1798.04 1860.32 1798.02 1860.61 1798 1860.89 1797.99 1861.16 1797.99 1861.41 1797.99 1862.19 1798.15 1862.8 1798.48 1863.24 1798.8 1863.69 1799.34 1863.91 1800.08 1863.91 1800.7 1863.91 1801.37 1863.68 1802.07 1863.21 1802.77 1862.75 1803.57 1862.03 1804.47 1861.04L1805.82 1862.4C1805.16 1863.15 1804.53 1863.78 1803.93 1864.3 1803.33 1864.82 1802.74 1865.25 1802.17 1865.58 1801.6 1865.91 1801.03 1866.15 1800.47 1866.3 1799.91 1866.45 1799.34 1866.52 1798.75 1866.52 1797.2 1866.52 1796.05 1866.16 1795.28 1865.43 1794.52 1864.7 1794.14 1863.63 1794.14 1862.21 1794.14 1861.73 1794.18 1861.2 1794.25 1860.62 1794.32 1860.04 1794.42 1859.47 1794.55 1858.93L1796.88 1848.81 1793.52 1848.81 1793.91 1847.31C1794.69 1847.31 1795.3 1847.23 1795.73 1847.08 1796.17 1846.93 1796.54 1846.73 1796.84 1846.47 1797.03 1846.28 1797.22 1846.06 1797.4 1845.79 1797.58 1845.53 1797.77 1845.2 1797.95 1844.83 1798.13 1844.45 1798.32 1844 1798.51 1843.49 1798.7 1842.97 1798.91 1842.37 1799.14 1841.68ZM1820.4 1840.88C1821.95 1840.88 1823.28 1841.17 1824.38 1841.75 1825.48 1842.33 1826.38 1843.16 1827.07 1844.23 1827.77 1845.3 1828.28 1846.62 1828.61 1848.17 1828.93 1849.71 1829.09 1851.47 1829.09 1853.42 1829.09 1857.75 1828.33 1861.03 1826.79 1863.25 1825.25 1865.47 1823.03 1866.58 1820.11 1866.58 1817.22 1866.58 1815.07 1865.53 1813.66 1863.44 1812.26 1861.34 1811.56 1858.17 1811.56 1853.91 1811.56 1851.68 1811.77 1849.75 1812.21 1848.13 1812.65 1846.5 1813.26 1845.15 1814.05 1844.07 1814.83 1843 1815.77 1842.2 1816.85 1841.67 1817.93 1841.14 1819.11 1840.88 1820.4 1840.88Z" fill-rule="evenodd"/><text fill="#000000" fill-opacity="0" font-family="Arial,Arial_MSFontService,sans-serif" font-size="25.7031" x="1793.52" y="1863.37">洧노0</text><path d="M255.5 3114C255.5 3102.68 264.678 3093.5 276 3093.5L441 3093.5C452.322 3093.5 461.5 3102.68 461.5 3114L461.5 3196C461.5 3207.32 452.322 3216.5 441 3216.5L276 3216.5C264.678 3216.5 255.5 3207.32 255.5 3196Z" stroke="#000000" stroke-width="4.58333" stroke-miterlimit="8" fill="#D9D9D9" fill-rule="evenodd"/><text font-family="Arial,Arial_MSFontService,sans-serif" font-weight="400" font-size="55" transform="matrix(1 0 0 1 324.534 3174)">RT</text><path d="M255.5 3397.17C255.5 3385.75 264.753 3376.5 276.167 3376.5L532.833 3376.5C544.247 3376.5 553.5 3385.75 553.5 3397.17L553.5 3479.83C553.5 3491.25 544.247 3500.5 532.833 3500.5L276.167 3500.5C264.753 3500.5 255.5 3491.25 255.5 3479.83Z" stroke="#000000" stroke-width="4.58333" stroke-miterlimit="8" fill="#D9D9D9" fill-rule="evenodd"/><text font-family="Arial,Arial_MSFontService,sans-serif" font-weight="400" font-size="55" transform="matrix(1 0 0 1 291.156 3458)">Accuracy</text><text font-family="Arial,Arial_MSFontService,sans-serif" font-weight="400" font-size="55" transform="matrix(1 0 0 1 594.687 3460)">=</text><path d="M2.29167-3.18144e-06 2.29202 255.422-2.29131 255.422-2.29167 3.18144e-06ZM18.0215 229.076 0.00036087 259.97-18.0208 229.076C-18.6586 227.983-18.2893 226.58-17.1961 225.942-16.1028 225.304-14.6996 225.674-14.0619 226.767L1.97985 254.267-1.97914 254.267 14.0625 226.767C14.7002 225.674 16.1034 225.304 17.1967 225.942 18.2899 226.58 18.6592 227.983 18.0215 229.076Z" transform="matrix(1 0 0 -1 291.5 1667.46)"/><path d="M291.514 1665.21 559.685 1666.89 559.657 1671.47 291.486 1669.79ZM533.439 1651 564.219 1669.21 533.213 1687.04C532.116 1687.67 530.715 1687.29 530.084 1686.19 529.453 1685.1 529.831 1683.69 530.929 1683.06L558.529 1667.2 558.504 1671.15 531.105 1654.94C530.016 1654.3 529.655 1652.89 530.3 1651.8 530.944 1650.71 532.35 1650.35 533.439 1651Z"/><rect x="293" y="1535" width="195" height="129" fill="#ACD78E"/><text font-family="Arial,Arial_MSFontService,sans-serif" font-weight="400" font-size="55" transform="matrix(1 0 0 1 321.968 1779)">Drift rate </text><text font-family="Arial,Arial_MSFontService,sans-serif" font-weight="400" font-size="55" transform="matrix(1 0 0 1 269.58 1845)">intercept </text><path d="M551.304 1809.01C549.03 1809.01 547.132 1810.11 545.611 1812.3 544.089 1814.49 542.844 1817.82 541.878 1822.28L538.252 1839.11C538.163 1839.53 538.118 1839.88 538.118 1840.16 538.118 1840.65 538.23 1841.06 538.454 1841.4 538.677 1841.74 539.009 1842.07 539.447 1842.4 539.886 1842.74 540.454 1843.02 541.153 1843.26 541.851 1843.51 542.737 1843.63 543.811 1843.63 545.261 1843.63 546.582 1843.18 547.772 1842.28 548.963 1841.39 549.898 1840.12 550.579 1838.47 551.259 1836.82 551.599 1834.94 551.599 1832.83 551.599 1830.81 551.04 1829.22 549.921 1828.08 548.802 1826.93 547.204 1826.28 545.127 1826.12L545.503 1824.21C547.437 1824.07 549.182 1823.51 550.74 1822.55 552.298 1821.58 553.519 1820.31 554.406 1818.75 555.292 1817.18 555.735 1815.46 555.735 1813.6 555.735 1812.12 555.364 1810.98 554.621 1810.19 553.878 1809.4 552.772 1809.01 551.304 1809.01ZM498.156 1808.66 509.274 1808.66 508.979 1809.98C508.191 1810.07 507.578 1810.3 507.139 1810.68 506.7 1811.05 506.392 1811.57 506.213 1812.25 506.034 1812.92 505.944 1813.82 505.944 1814.95 505.944 1815.21 505.971 1816.02 506.025 1817.36L506.777 1837.02 506.777 1839.17 507.045 1839.17 518.674 1818.19C519.354 1816.96 519.864 1815.9 520.204 1815.01 520.544 1814.13 520.715 1813.34 520.715 1812.66 520.715 1811.16 519.819 1810.26 518.029 1809.98L518.324 1808.66 529.308 1808.66 529.013 1809.98C528.529 1810.05 528.068 1810.23 527.63 1810.53 527.191 1810.82 526.699 1811.32 526.153 1812 525.607 1812.69 524.761 1814.02 523.615 1815.99L506.427 1845.75 502.856 1845.75 501.056 1815.8C500.985 1814.64 500.855 1813.64 500.667 1812.81 500.479 1811.98 500.184 1811.33 499.781 1810.86 499.378 1810.4 498.738 1810.1 497.861 1809.98ZM551.572 1806.89C554.33 1806.89 556.46 1807.5 557.964 1808.73 559.468 1809.95 560.22 1811.7 560.22 1813.95 560.22 1814.86 560.09 1815.85 559.831 1816.92 559.571 1817.98 559.056 1819.03 558.286 1820.06 557.516 1821.09 556.447 1822.04 555.077 1822.92 553.707 1823.8 552.029 1824.55 550.042 1825.18L549.988 1825.39C554.249 1826.9 556.38 1829.7 556.38 1833.8 556.38 1835.91 555.91 1837.89 554.97 1839.73 554.03 1841.58 552.651 1843.04 550.834 1844.12 549.017 1845.21 546.926 1845.75 544.563 1845.75 543.041 1845.75 541.703 1845.63 540.548 1845.39 539.393 1845.14 538.198 1844.73 536.963 1844.14L534.09 1856.87 529.712 1856.87 537.661 1821.36C538.377 1818.18 539.344 1815.54 540.562 1813.44 541.779 1811.35 543.301 1809.73 545.127 1808.59 546.953 1807.46 549.102 1806.89 551.572 1806.89Z" fill-rule="evenodd"/><text fill="#000000" fill-opacity="0" font-family="Arial,Arial_MSFontService,sans-serif" font-size="49.978" x="497.861" y="1850.62">洧녤洧띻</text><path d="M571.012 1833.15C570.101 1833.15 569.339 1833.39 568.727 1833.86 568.115 1834.34 567.63 1835.03 567.272 1835.95 566.914 1836.87 566.66 1837.99 566.51 1839.31 566.36 1840.63 566.286 1842.13 566.286 1843.81 566.286 1845.75 566.38 1847.43 566.569 1848.84 566.758 1850.26 567.051 1851.42 567.448 1852.33 567.845 1853.24 568.343 1853.91 568.942 1854.34 569.541 1854.77 570.257 1854.99 571.09 1854.99 571.872 1854.99 572.555 1854.78 573.141 1854.38 573.727 1853.98 574.212 1853.35 574.596 1852.5 574.98 1851.64 575.27 1850.56 575.465 1849.25 575.661 1847.94 575.758 1846.4 575.758 1844.61 575.758 1842.61 575.651 1840.88 575.436 1839.44 575.221 1837.99 574.918 1836.81 574.528 1835.87 574.137 1834.94 573.646 1834.26 573.053 1833.81 572.461 1833.37 571.78 1833.15 571.012 1833.15ZM571.09 1831.25C572.64 1831.25 573.965 1831.54 575.065 1832.12 576.165 1832.7 577.064 1833.53 577.76 1834.6 578.457 1835.68 578.968 1836.99 579.293 1838.54 579.619 1840.09 579.782 1841.84 579.782 1843.79 579.782 1848.13 579.013 1851.41 577.477 1853.63 575.941 1855.85 573.714 1856.96 570.797 1856.96 567.907 1856.96 565.758 1855.91 564.352 1853.81 562.946 1851.72 562.243 1848.54 562.243 1844.28 562.243 1842.06 562.461 1840.13 562.897 1838.5 563.333 1836.87 563.945 1835.52 564.733 1834.45 565.521 1833.37 566.455 1832.57 567.536 1832.05 568.616 1831.52 569.801 1831.25 571.09 1831.25Z" fill-rule="evenodd"/><text fill="#000000" fill-opacity="0" font-family="Arial,Arial_MSFontService,sans-serif" font-size="25.7031" x="562.243" y="1853.75">0</text><path d="M2.29167-3.18144e-06 2.29202 255.422-2.29131 255.422-2.29167 3.18144e-06ZM18.0215 229.076 0.00036087 259.97-18.0208 229.076C-18.6586 227.983-18.2893 226.58-17.1961 225.942-16.1028 225.304-14.6996 225.674-14.0619 226.767L1.97985 254.267-1.97914 254.267 14.0625 226.767C14.7002 225.674 16.1034 225.304 17.1967 225.942 18.2899 226.58 18.6592 227.983 18.0215 229.076Z" transform="matrix(1 0 0 -1 628.5 1672.46)"/><path d="M628.514 1670.21 896.685 1671.89 896.657 1676.47 628.486 1674.79ZM870.439 1656 901.219 1674.21 870.213 1692.04C869.116 1692.67 867.715 1692.29 867.084 1691.19 866.453 1690.1 866.831 1688.69 867.928 1688.06L895.529 1672.19 895.504 1676.15 868.105 1659.94C867.016 1659.3 866.655 1657.89 867.3 1656.8 867.944 1655.71 869.35 1655.35 870.439 1656Z"/><rect x="630" y="1540" width="195" height="129" fill="#ACD78E"/><text font-family="Arial,Arial_MSFontService,sans-serif" font-weight="400" font-size="55" transform="matrix(1 0 0 1 656.792 1784)">Drift rate </text><text font-family="Arial,Arial_MSFontService,sans-serif" font-weight="400" font-size="55" transform="matrix(1 0 0 1 644.852 1850)">slope </text><path d="M846.94 1814.05C844.667 1814.05 842.769 1815.15 841.247 1817.34 839.725 1819.53 838.481 1822.86 837.514 1827.32L833.889 1844.16C833.799 1844.57 833.754 1844.92 833.754 1845.2 833.754 1845.69 833.866 1846.1 834.09 1846.44 834.314 1846.78 834.645 1847.12 835.084 1847.45 835.522 1847.78 836.091 1848.06 836.789 1848.31 837.487 1848.55 838.374 1848.67 839.448 1848.67 840.898 1848.67 842.218 1848.22 843.409 1847.33 844.6 1846.43 845.535 1845.16 846.215 1843.51 846.896 1841.87 847.236 1839.99 847.236 1837.87 847.236 1835.85 846.676 1834.27 845.557 1833.12 844.438 1831.97 842.841 1831.32 840.764 1831.16L841.14 1829.25C843.073 1829.11 844.819 1828.55 846.376 1827.59 847.934 1826.62 849.156 1825.35 850.042 1823.79 850.928 1822.22 851.372 1820.51 851.372 1818.64 851.372 1817.16 851 1816.02 850.257 1815.23 849.514 1814.45 848.409 1814.05 846.94 1814.05ZM793.792 1813.7 804.911 1813.7 804.615 1815.02C803.827 1815.11 803.214 1815.34 802.776 1815.72 802.337 1816.09 802.028 1816.62 801.849 1817.29 801.67 1817.96 801.581 1818.86 801.581 1819.99 801.581 1820.26 801.607 1821.06 801.661 1822.4L802.413 1842.06 802.413 1844.21 802.682 1844.21 814.31 1823.24C814.99 1822 815.501 1820.94 815.841 1820.05 816.181 1819.17 816.351 1818.38 816.351 1817.7 816.351 1816.2 815.456 1815.31 813.666 1815.02L813.961 1813.7 824.945 1813.7 824.649 1815.02C824.166 1815.09 823.705 1815.27 823.266 1815.57 822.828 1815.86 822.335 1816.36 821.789 1817.05 821.243 1817.74 820.397 1819.06 819.251 1821.03L802.064 1850.79 798.492 1850.79 796.693 1820.85C796.621 1819.68 796.491 1818.68 796.303 1817.85 796.115 1817.02 795.82 1816.37 795.417 1815.9 795.014 1815.44 794.374 1815.14 793.497 1815.02ZM847.209 1811.93C849.966 1811.93 852.097 1812.54 853.601 1813.77 855.104 1815 855.856 1816.74 855.856 1818.99 855.856 1819.91 855.727 1820.9 855.467 1821.96 855.207 1823.03 854.693 1824.07 853.923 1825.1 853.153 1826.13 852.083 1827.09 850.714 1827.96 849.344 1828.84 847.666 1829.59 845.678 1830.22L845.625 1830.43C849.886 1831.94 852.016 1834.74 852.016 1838.84 852.016 1840.95 851.546 1842.93 850.606 1844.77 849.666 1846.62 848.288 1848.08 846.47 1849.17 844.653 1850.25 842.563 1850.79 840.2 1850.79 838.678 1850.79 837.34 1850.67 836.185 1850.43 835.03 1850.19 833.835 1849.77 832.6 1849.18L829.726 1861.91 825.349 1861.91 833.298 1826.41C834.014 1823.22 834.981 1820.58 836.198 1818.48 837.416 1816.39 838.938 1814.77 840.764 1813.64 842.59 1812.5 844.738 1811.93 847.209 1811.93Z" fill-rule="evenodd"/><text fill="#000000" fill-opacity="0" font-family="Arial,Arial_MSFontService,sans-serif" font-size="49.978" x="793.497" y="1855.66">洧녤洧띻</text><path d="M866.967 1836.43 868.158 1836.43C868.132 1837.15 868.113 1837.79 868.1 1838.36 868.087 1838.92 868.077 1839.47 868.07 1840.01 868.064 1840.54 868.061 1841.07 868.061 1841.59L868.061 1856.43C868.061 1856.84 868.074 1857.19 868.1 1857.48 868.126 1857.77 868.168 1858.02 868.227 1858.22 868.285 1858.42 868.363 1858.59 868.461 1858.74 868.559 1858.88 868.673 1859 868.803 1859.11 868.959 1859.27 869.167 1859.39 869.428 1859.47 869.688 1859.55 870.02 1859.63 870.424 1859.69 870.828 1859.74 871.313 1859.79 871.879 1859.82 872.445 1859.85 873.126 1859.88 873.92 1859.89L873.92 1861.59 858.432 1861.59 858.432 1859.89C859.2 1859.86 859.851 1859.83 860.385 1859.8 860.919 1859.77 861.374 1859.72 861.752 1859.67 862.13 1859.61 862.432 1859.54 862.66 1859.47 862.888 1859.4 863.087 1859.31 863.256 1859.21 863.438 1859.09 863.595 1858.96 863.725 1858.83 863.855 1858.69 863.959 1858.52 864.037 1858.31 864.115 1858.1 864.177 1857.85 864.223 1857.55 864.268 1857.25 864.291 1856.88 864.291 1856.43L864.291 1842.43C864.291 1841.92 864.193 1841.56 863.998 1841.36 863.803 1841.15 863.523 1841.04 863.158 1841.04 862.755 1841.04 862.156 1841.25 861.361 1841.67 860.567 1842.08 859.539 1842.7 858.276 1843.52 858.106 1843.22 857.95 1842.92 857.807 1842.62 857.664 1842.33 857.514 1842.02 857.358 1841.71 858.972 1840.82 860.57 1839.94 862.152 1839.06 863.734 1838.18 865.339 1837.31 866.967 1836.43Z" fill-rule="evenodd"/><text fill="#000000" fill-opacity="0" font-family="Arial,Arial_MSFontService,sans-serif" font-size="25.1562" x="857.358" y="1858.44">1</text><path d="M2.29167-3.18144e-06 2.29202 255.422-2.29131 255.422-2.29167 3.18144e-06ZM18.0215 229.076 0.00036087 259.97-18.0208 229.076C-18.6586 227.983-18.2893 226.58-17.1961 225.942-16.1028 225.304-14.6996 225.674-14.0619 226.767L1.97985 254.267-1.97914 254.267 14.0625 226.767C14.7002 225.674 16.1034 225.304 17.1967 225.942 18.2899 226.58 18.6592 227.983 18.0215 229.076Z" transform="matrix(1 0 0 -1 1163.5 1669.46)"/><path d="M1163.51 1667.21 1431.69 1668.89 1431.66 1673.47 1163.49 1671.79ZM1405.44 1653 1436.22 1671.21 1405.21 1689.04C1404.12 1689.67 1402.72 1689.29 1402.08 1688.19 1401.45 1687.1 1401.83 1685.69 1402.93 1685.06L1430.53 1669.2 1430.5 1673.15 1403.11 1656.94C1402.02 1656.3 1401.66 1654.89 1402.3 1653.8 1402.94 1652.71 1404.35 1652.35 1405.44 1653Z"/><rect x="1164" y="1537" width="196" height="129" fill="#ACD78E"/><text font-family="Arial,Arial_MSFontService,sans-serif" font-weight="400" font-size="55" transform="matrix(1 0 0 1 1139.59 1782)">Non</text><text font-family="Arial,Arial_MSFontService,sans-serif" font-weight="400" font-size="55" transform="matrix(1 0 0 1 1239.85 1782)">-</text><text font-family="Arial,Arial_MSFontService,sans-serif" font-weight="400" font-size="55" transform="matrix(1 0 0 1 1258.18 1782)">deicison </text><text font-family="Arial,Arial_MSFontService,sans-serif" font-weight="400" font-size="55" transform="matrix(1 0 0 1 1126.41 1848)">time mean </text><path d="M1406.33 1822.39 1410.84 1822.39 1407.53 1837.03C1407.27 1838.21 1407.06 1839.24 1406.9 1840.11 1406.75 1840.97 1406.67 1841.77 1406.67 1842.48 1406.67 1843.41 1406.92 1844.12 1407.41 1844.6 1407.91 1845.09 1408.61 1845.33 1409.52 1845.33 1410.58 1845.33 1411.73 1844.77 1412.97 1843.64 1414.22 1842.51 1415.33 1841.1 1416.32 1839.39 1417.3 1837.69 1417.94 1836.19 1418.22 1834.88L1420.88 1822.39 1425.53 1822.39 1421.71 1839.39C1421.3 1841.24 1421.1 1842.56 1421.1 1843.37 1421.1 1844.09 1421.21 1844.6 1421.45 1844.93 1421.68 1845.25 1422.05 1845.41 1422.55 1845.41 1422.96 1845.41 1423.46 1845.25 1424.04 1844.93 1424.62 1844.6 1425.27 1844.04 1425.98 1843.23L1427.49 1844.74C1426.49 1845.72 1425.59 1846.48 1424.82 1847.02 1424.04 1847.56 1423.33 1847.94 1422.68 1848.16 1422.04 1848.39 1421.34 1848.5 1420.59 1848.5 1419.42 1848.5 1418.52 1848.15 1417.87 1847.46 1417.23 1846.78 1416.91 1845.81 1416.91 1844.58 1416.91 1843.57 1417.14 1842.5 1417.61 1841.35L1417.31 1841.19C1415.64 1843.66 1414.1 1845.46 1412.69 1846.58 1411.28 1847.7 1409.82 1848.26 1408.31 1848.26 1407.56 1848.26 1406.88 1848.14 1406.26 1847.89 1405.64 1847.65 1405 1847.19 1404.34 1846.51 1404.12 1847.59 1403.93 1849.03 1403.76 1850.85 1403.59 1852.67 1403.51 1854.3 1403.51 1855.75 1403.51 1856.29 1403.52 1856.72 1403.56 1857.04L1403.18 1858.84 1399.69 1858.84 1398.38 1857.23C1399.18 1854.25 1399.93 1851.2 1400.63 1848.07Z" fill-rule="evenodd"/><text fill="#000000" fill-opacity="0" font-family="Arial,Arial_MSFontService,sans-serif" font-size="36.4429" x="1398.38" y="1854.28">洧랞</text><path d="M1457.92 1835.9C1457.01 1835.9 1456.25 1836.14 1455.64 1836.61 1455.02 1837.09 1454.54 1837.78 1454.18 1838.7 1453.82 1839.62 1453.57 1840.74 1453.42 1842.06 1453.27 1843.38 1453.19 1844.88 1453.19 1846.56 1453.19 1848.5 1453.29 1850.18 1453.48 1851.59 1453.67 1853.01 1453.96 1854.17 1454.36 1855.08 1454.75 1855.99 1455.25 1856.66 1455.85 1857.09 1456.45 1857.52 1457.17 1857.74 1458 1857.74 1458.78 1857.74 1459.46 1857.53 1460.05 1857.13 1460.64 1856.73 1461.12 1856.1 1461.5 1855.25 1461.89 1854.39 1462.18 1853.31 1462.37 1852 1462.57 1850.69 1462.67 1849.15 1462.67 1847.36 1462.67 1845.36 1462.56 1843.63 1462.34 1842.19 1462.13 1840.74 1461.83 1839.56 1461.44 1838.62 1461.05 1837.69 1460.55 1837.01 1459.96 1836.56 1459.37 1836.12 1458.69 1835.9 1457.92 1835.9ZM1436.74 1834.81 1439.78 1834.81 1438.67 1839.77 1445.31 1839.77 1444.86 1841.93 1438.24 1841.93 1436.25 1850.12C1436.12 1850.67 1436.01 1851.16 1435.93 1851.59 1435.84 1852.03 1435.77 1852.42 1435.72 1852.77 1435.67 1853.13 1435.63 1853.44 1435.61 1853.73 1435.59 1854.02 1435.58 1854.28 1435.58 1854.53 1435.58 1855.31 1435.75 1855.93 1436.07 1856.37 1436.4 1856.81 1436.93 1857.03 1437.67 1857.03 1438.3 1857.03 1438.96 1856.8 1439.67 1856.34 1440.37 1855.88 1441.17 1855.15 1442.07 1854.16L1443.42 1855.53C1442.75 1856.27 1442.12 1856.9 1441.52 1857.42 1440.92 1857.94 1440.34 1858.37 1439.76 1858.7 1439.19 1859.03 1438.62 1859.28 1438.06 1859.42 1437.51 1859.57 1436.93 1859.65 1436.35 1859.65 1434.8 1859.65 1433.64 1859.28 1432.88 1858.56 1432.12 1857.83 1431.74 1856.75 1431.74 1855.33 1431.74 1854.85 1431.77 1854.32 1431.84 1853.74 1431.92 1853.16 1432.02 1852.6 1432.15 1852.05L1434.47 1841.93 1431.11 1841.93 1431.5 1840.43C1432.28 1840.43 1432.89 1840.36 1433.33 1840.21 1433.76 1840.06 1434.13 1839.85 1434.43 1839.59 1434.63 1839.41 1434.82 1839.18 1435 1838.92 1435.18 1838.65 1435.36 1838.33 1435.55 1837.95 1435.73 1837.57 1435.91 1837.13 1436.1 1836.61 1436.29 1836.1 1436.5 1835.5 1436.74 1834.81ZM1458 1834C1459.55 1834 1460.87 1834.29 1461.97 1834.87 1463.07 1835.45 1463.97 1836.28 1464.67 1837.35 1465.37 1838.43 1465.88 1839.74 1466.2 1841.29 1466.53 1842.84 1466.69 1844.59 1466.69 1846.54 1466.69 1850.88 1465.92 1854.16 1464.39 1856.38 1462.85 1858.6 1460.62 1859.71 1457.71 1859.71 1454.81 1859.71 1452.67 1858.66 1451.26 1856.56 1449.85 1854.47 1449.15 1851.29 1449.15 1847.03 1449.15 1844.81 1449.37 1842.88 1449.81 1841.25 1450.24 1839.62 1450.85 1838.27 1451.64 1837.2 1452.43 1836.12 1453.36 1835.32 1454.44 1834.8 1455.52 1834.27 1456.71 1834 1458 1834Z" fill-rule="evenodd"/><text fill="#000000" fill-opacity="0" font-family="Arial,Arial_MSFontService,sans-serif" font-size="25.7031" x="1431.11" y="1856.5">洧노0</text><text font-family="Arial,Arial_MSFontService,sans-serif" font-weight="400" font-size="64" transform="matrix(1 0 0 1 958.031 1611)">......</text><path d="M2.29167-3.01077e-06 2.29202 270.158-2.29131 270.158-2.29167 3.01077e-06ZM18.0215 243.813 0.000361208 274.706-18.0208 243.813C-18.6586 242.72-18.2893 241.317-17.1961 240.679-16.1028 240.041-14.6996 240.41-14.0619 241.504L1.97985 269.004-1.97914 269.004 14.0625 241.504C14.7002 240.41 16.1034 240.041 17.1967 240.679 18.2899 241.316 18.6592 242.72 18.0215 243.813Z" transform="matrix(1 0 0 -1 1358.5 2283.2)"/><path d="M1358.51 2281.21 1642.32 2282.99 1642.29 2287.57 1358.49 2285.79ZM1616.07 2267.09 1646.85 2285.31 1615.85 2303.13C1614.75 2303.77 1613.35 2303.39 1612.72 2302.29 1612.09 2301.19 1612.47 2299.79 1613.56 2299.16L1641.16 2283.29 1641.14 2287.25 1613.74 2271.04C1612.65 2270.39 1612.29 2268.99 1612.93 2267.9 1613.58 2266.81 1614.98 2266.45 1616.07 2267.09Z"/><path d="M1360 2278.03C1381.51 2237.41 1432.15 2093.01 1479.15 2094.01 1526.15 2095 1567.53 2244.87 1595 2283" fill="#FED961" fill-rule="evenodd"/><text font-family="Arial,Arial_MSFontService,sans-serif" font-weight="400" font-size="55" transform="matrix(1 0 0 1 1384.5 2378)">Trial</text><text font-family="Arial,Arial_MSFontService,sans-serif" font-weight="400" font-size="55" transform="matrix(1 0 0 1 1489.02 2378)">-</text><text font-family="Arial,Arial_MSFontService,sans-serif" font-weight="400" font-size="55" transform="matrix(1 0 0 1 1507.35 2378)">level</text><text font-family="Arial,Arial_MSFontService,sans-serif" font-weight="400" font-size="55" transform="matrix(1 0 0 1 1342.52 2444)">Non</text><text font-family="Arial,Arial_MSFontService,sans-serif" font-weight="400" font-size="55" transform="matrix(1 0 0 1 1442.78 2444)">-</text><text font-family="Arial,Arial_MSFontService,sans-serif" font-weight="400" font-size="55" transform="matrix(1 0 0 1 1461.11 2444)">deicison </text><text font-family="Arial,Arial_MSFontService,sans-serif" font-weight="400" font-size="55" transform="matrix(1 0 0 1 1419.13 2510)">time </text><path d="M1548.79 2477.96 1552.5 2477.96 1551.02 2484.59 1559.19 2484.59 1558.6 2487.3 1550.43 2487.3 1548.04 2497.72C1547.58 2499.75 1547.28 2501.2 1547.15 2502.09 1547.03 2502.97 1546.97 2503.68 1546.97 2504.22 1546.97 2506.44 1547.89 2507.55 1549.73 2507.55 1550.52 2507.55 1551.36 2507.25 1552.24 2506.65 1553.13 2506.05 1554.18 2505.03 1555.4 2503.58L1556.96 2505.19C1555.4 2507.07 1553.9 2508.46 1552.46 2509.35 1551.02 2510.25 1549.51 2510.69 1547.93 2510.69 1544.19 2510.69 1542.32 2508.8 1542.32 2505.03 1542.32 2503.83 1542.47 2502.57 1542.78 2501.24L1545.95 2487.3 1541.43 2487.3 1541.84 2485.45C1542.89 2485.43 1543.69 2485.35 1544.24 2485.21 1544.79 2485.06 1545.24 2484.87 1545.61 2484.62 1545.98 2484.37 1546.31 2484.01 1546.62 2483.54 1546.92 2483.08 1547.22 2482.48 1547.5 2481.76 1547.79 2481.03 1548.22 2479.77 1548.79 2477.96Z" fill-rule="evenodd"/><text fill="#000000" fill-opacity="0" font-family="Arial,Arial_MSFontService,sans-serif" font-size="32.7368" x="1541.43" y="2506.6">洧노</text><path d="M1570.84 2498.09C1569.93 2498.09 1569.17 2498.33 1568.56 2498.81 1567.95 2499.28 1567.46 2499.98 1567.1 2500.9 1566.74 2501.82 1566.49 2502.94 1566.34 2504.26 1566.19 2505.58 1566.12 2507.08 1566.12 2508.76 1566.12 2510.7 1566.21 2512.38 1566.4 2513.79 1566.59 2515.2 1566.88 2516.36 1567.28 2517.27 1567.68 2518.19 1568.17 2518.86 1568.77 2519.29 1569.37 2519.72 1570.09 2519.93 1570.92 2519.93 1571.7 2519.93 1572.39 2519.73 1572.97 2519.33 1573.56 2518.92 1574.04 2518.29 1574.43 2517.44 1574.81 2516.59 1575.1 2515.51 1575.3 2514.2 1575.49 2512.89 1575.59 2511.34 1575.59 2509.56 1575.59 2507.55 1575.48 2505.83 1575.27 2504.38 1575.05 2502.94 1574.75 2501.75 1574.36 2500.82 1573.97 2499.89 1573.48 2499.2 1572.88 2498.76 1572.29 2498.32 1571.61 2498.09 1570.84 2498.09ZM1570.92 2496.2C1572.47 2496.2 1573.8 2496.49 1574.9 2497.07 1576 2497.65 1576.89 2498.48 1577.59 2499.55 1578.29 2500.62 1578.8 2501.94 1579.12 2503.49 1579.45 2505.04 1579.61 2506.79 1579.61 2508.74 1579.61 2513.08 1578.84 2516.35 1577.31 2518.57 1575.77 2520.79 1573.55 2521.9 1570.63 2521.9 1567.74 2521.9 1565.59 2520.86 1564.18 2518.76 1562.78 2516.66 1562.07 2513.49 1562.07 2509.23 1562.07 2507 1562.29 2505.07 1562.73 2503.45 1563.16 2501.82 1563.78 2500.47 1564.56 2499.39 1565.35 2498.32 1566.29 2497.52 1567.37 2496.99 1568.45 2496.46 1569.63 2496.2 1570.92 2496.2Z" fill-rule="evenodd"/><text fill="#000000" fill-opacity="0" font-family="Arial,Arial_MSFontService,sans-serif" font-size="25.7031" x="1562.07" y="2518.69">0</text><path d="M2.29167-3.01091e-06 2.29202 270.146-2.29131 270.146-2.29167 3.01091e-06ZM18.0215 243.8 0.000361208 274.694-18.0208 243.8C-18.6586 242.707-18.2893 241.304-17.1961 240.666-16.1028 240.028-14.6996 240.398-14.0619 241.491L1.97985 268.991-1.97914 268.991 14.0625 241.491C14.7002 240.398 16.1034 240.028 17.1967 240.666 18.2899 241.304 18.6592 242.707 18.0215 243.8Z" transform="matrix(1 0 0 -1 410.5 2285.18)"/><path d="M410.514 2283.21 694.32 2284.99 694.291 2289.57 410.486 2287.79ZM668.073 2269.09 698.853 2287.31 667.847 2305.13C666.75 2305.77 665.349 2305.39 664.718 2304.29 664.088 2303.19 664.466 2301.79 665.563 2301.16L693.163 2285.29 693.138 2289.25 665.739 2273.04C664.65 2272.39 664.289 2270.99 664.934 2269.9 665.578 2268.81 666.984 2268.45 668.073 2269.09Z"/><text font-family="Arial,Arial_MSFontService,sans-serif" font-weight="400" font-size="55" transform="matrix(1 0 0 1 435.588 2380)">Item</text><text font-family="Arial,Arial_MSFontService,sans-serif" font-weight="400" font-size="55" transform="matrix(1 0 0 1 542.724 2380)">-</text><text font-family="Arial,Arial_MSFontService,sans-serif" font-weight="400" font-size="55" transform="matrix(1 0 0 1 561.057 2380)">level</text><text font-family="Arial,Arial_MSFontService,sans-serif" font-weight="400" font-size="55" transform="matrix(1 0 0 1 422.274 2446)">drift rate </text><path d="M664.841 2420.08C666.13 2420.08 667.061 2420.41 667.634 2421.08 668.207 2421.75 668.494 2422.65 668.494 2423.78 668.494 2424.64 668.342 2425.63 668.037 2426.74 667.733 2427.85 667.303 2429.02 666.748 2430.25 666.193 2431.49 665.531 2432.76 664.761 2434.05 663.991 2435.35 663.141 2436.61 662.21 2437.84 661.279 2439.07 660.285 2440.22 659.229 2441.3 658.172 2442.39 657.076 2443.33 655.939 2444.14 654.802 2444.94 653.647 2445.58 652.474 2446.06 651.302 2446.53 650.134 2446.77 648.97 2446.77 648.451 2446.77 648.016 2446.64 647.667 2446.38 647.318 2446.12 647.036 2445.75 646.821 2445.28 646.607 2444.8 646.454 2444.25 646.365 2443.6 646.275 2442.96 646.231 2442.25 646.231 2441.48 646.231 2440.46 646.293 2439.37 646.419 2438.2 646.544 2437.04 646.705 2435.87 646.902 2434.68L648.03 2427.25C648.101 2426.82 648.16 2426.41 648.204 2426.02 648.249 2425.64 648.272 2425.36 648.272 2425.18 648.272 2424.62 648.182 2424.17 648.003 2423.81 647.824 2423.45 647.52 2423.27 647.09 2423.27 646.75 2423.27 646.383 2423.37 645.989 2423.58 645.595 2423.79 645.197 2424.05 644.794 2424.37 644.391 2424.69 644.002 2425.04 643.626 2425.41 643.25 2425.77 642.9 2426.12 642.578 2426.44L641.289 2424.94C641.844 2424.36 642.435 2423.79 643.062 2423.23 643.688 2422.67 644.351 2422.16 645.049 2421.7 645.747 2421.24 646.481 2420.88 647.251 2420.6 648.021 2420.32 648.809 2420.18 649.614 2420.18 650.295 2420.18 650.85 2420.29 651.279 2420.52 651.709 2420.74 652.045 2421.04 652.286 2421.4 652.528 2421.77 652.694 2422.17 652.783 2422.61 652.873 2423.05 652.918 2423.49 652.918 2423.92 652.918 2424.17 652.909 2424.41 652.891 2424.64 652.873 2424.87 652.846 2425.09 652.81 2425.29L651.306 2435.01C651.145 2436.03 651.011 2437.03 650.903 2438 650.796 2438.98 650.742 2439.84 650.742 2440.59 650.742 2441.34 650.787 2441.95 650.877 2442.42 650.966 2442.88 651.136 2443.12 651.387 2443.12 651.978 2443.12 652.721 2442.88 653.616 2442.41 654.511 2441.93 655.451 2441.28 656.436 2440.45 657.42 2439.61 658.405 2438.63 659.39 2437.49 660.374 2436.35 661.261 2435.12 662.048 2433.8 662.836 2432.47 663.476 2431.08 663.969 2429.61 664.461 2428.14 664.707 2426.66 664.707 2425.18 664.707 2424.53 664.568 2424.04 664.291 2423.69 664.013 2423.34 663.579 2423.16 662.988 2423.16 662.236 2423.16 661.543 2423.45 660.907 2424.04 660.271 2424.62 659.614 2425.38 658.933 2426.33L657.402 2424.96C657.832 2424.32 658.338 2423.7 658.92 2423.11 659.502 2422.52 660.119 2422 660.773 2421.55 661.426 2421.1 662.102 2420.75 662.8 2420.48 663.499 2420.21 664.179 2420.08 664.841 2420.08Z" fill-rule="evenodd"/><text fill="#000000" fill-opacity="0" font-family="Arial,Arial_MSFontService,sans-serif" font-size="26.6943" x="641.289" y="2443.43">洧녺</text><path d="M678.049 2437.8 679.006 2437.8 676.115 2450.8C675.933 2451.57 675.806 2452.18 675.734 2452.64 675.663 2453.1 675.627 2453.51 675.627 2453.87 675.627 2454.37 675.728 2454.72 675.93 2454.94 676.132 2455.17 676.434 2455.28 676.838 2455.28 677.072 2455.28 677.307 2455.23 677.541 2455.14 677.775 2455.05 678.026 2454.91 678.293 2454.71 678.56 2454.51 678.853 2454.26 679.172 2453.96 679.491 2453.65 679.846 2453.28 680.236 2452.85L681.564 2454.14C680.887 2454.83 680.272 2455.42 679.719 2455.89 679.165 2456.37 678.641 2456.75 678.146 2457.05 677.652 2457.35 677.167 2457.57 676.691 2457.7 676.216 2457.83 675.712 2457.89 675.178 2457.89 674.683 2457.89 674.237 2457.8 673.84 2457.62 673.443 2457.44 673.101 2457.19 672.814 2456.87 672.528 2456.55 672.307 2456.17 672.15 2455.73 671.994 2455.28 671.916 2454.79 671.916 2454.26 671.916 2453.83 671.968 2453.3 672.072 2452.66 672.176 2452.02 672.31 2451.33 672.473 2450.58 672.635 2449.83 672.814 2449.05 673.01 2448.23 673.205 2447.41 673.397 2446.59 673.586 2445.78 673.775 2444.98 673.944 2444.2 674.094 2443.45 674.243 2442.7 674.351 2442.02 674.416 2441.41 674.442 2441.31 674.455 2441.2 674.455 2441.11 674.455 2441.01 674.455 2440.92 674.455 2440.84 674.429 2440.34 674.25 2439.96 673.918 2439.73 673.586 2439.5 672.997 2439.37 672.15 2439.34L672.385 2438.01ZM676.916 2429.93 680.822 2429.93 679.865 2434.12 675.998 2434.12Z" fill-rule="evenodd"/><text fill="#000000" fill-opacity="0" font-family="Arial,Arial_MSFontService,sans-serif" font-size="27.9688" x="671.916" y="2454.4">洧녰</text><path d="M0 0 0.000360892 202.125" stroke="#4874CB" stroke-width="4.58333" stroke-miterlimit="8" fill="none" fill-rule="evenodd" transform="matrix(1 0 0 -1 449.5 2283.62)"/><path d="M0 0 2.0625 170.958" stroke="#4874CB" stroke-width="4.58333" stroke-miterlimit="8" fill="none" fill-rule="evenodd" transform="matrix(1 0 0 -1 485.5 2286.46)"/><path d="M0 0 1.14583 140.479" stroke="#4874CB" stroke-width="4.58333" stroke-miterlimit="8" fill="none" fill-rule="evenodd" transform="matrix(1 0 0 -1 525.5 2286.98)"/><path d="M0 0 0.916667 99" stroke="#4874CB" stroke-width="4.58333" stroke-miterlimit="8" fill="none" fill-rule="evenodd" transform="matrix(1 0 0 -1 560.5 2286.5)"/><path d="M595.187 2283.94 594.5 2214.5" stroke="#4874CB" stroke-width="4.58333" stroke-miterlimit="8" fill="none" fill-rule="evenodd"/><path d="M625.958 2287.35 625.5 2233.5" stroke="#4874CB" stroke-width="4.58333" stroke-miterlimit="8" fill="none" fill-rule="evenodd"/><path d="M2.29167-3.01109e-06 2.29202 270.129-2.29131 270.129-2.29167 3.01109e-06ZM18.0215 243.784 0.000361207 274.677-18.0208 243.784C-18.6586 242.691-18.2893 241.287-17.1961 240.65-16.1028 240.012-14.6996 240.381-14.0619 241.474L1.97985 268.974-1.97914 268.974 14.0625 241.474C14.7002 240.381 16.1034 240.012 17.1967 240.65 18.2899 241.287 18.6592 242.69 18.0215 243.784Z" transform="matrix(1 0 0 -1 863.5 2285.17)"/><path d="M863.514 2282.21 1147.32 2283.99 1147.29 2288.57 863.486 2286.79ZM1121.07 2268.09 1151.85 2286.31 1120.85 2304.13C1119.75 2304.77 1118.35 2304.39 1117.72 2303.29 1117.09 2302.19 1117.47 2300.79 1118.56 2300.16L1146.16 2284.29 1146.14 2288.25 1118.74 2272.04C1117.65 2271.39 1117.29 2269.99 1117.93 2268.9 1118.58 2267.81 1119.98 2267.45 1121.07 2268.09Z"/><text font-family="Arial,Arial_MSFontService,sans-serif" font-weight="400" font-size="55" transform="matrix(1 0 0 1 888.193 2380)">Item</text><text font-family="Arial,Arial_MSFontService,sans-serif" font-weight="400" font-size="55" transform="matrix(1 0 0 1 995.328 2380)">-</text><text font-family="Arial,Arial_MSFontService,sans-serif" font-weight="400" font-size="55" transform="matrix(1 0 0 1 1013.66 2380)">level</text><text font-family="Arial,Arial_MSFontService,sans-serif" font-weight="400" font-size="55" transform="matrix(1 0 0 1 861.151 2446)">boundary </text><path d="M1121.85 2421.83C1120.01 2421.83 1118.35 2422.57 1116.89 2424.06 1115.42 2425.54 1114.27 2427.53 1113.45 2430.03 1112.63 2432.53 1112.21 2435.02 1112.21 2437.51 1112.21 2439.37 1112.47 2440.77 1112.98 2441.69 1113.49 2442.61 1114.34 2443.07 1115.54 2443.07 1116.73 2443.07 1117.88 2442.56 1119.02 2441.54 1120.16 2440.52 1121.33 2439.06 1122.54 2437.18 1123.75 2435.29 1124.6 2433.11 1125.1 2430.64L1125.35 2429.48C1125.51 2428.75 1125.61 2428.11 1125.67 2427.57 1125.72 2427.04 1125.75 2426.46 1125.75 2425.83 1125.75 2424.45 1125.45 2423.44 1124.86 2422.79 1124.27 2422.15 1123.27 2421.83 1121.85 2421.83ZM1121.32 2419.71C1122.48 2419.71 1123.57 2419.84 1124.58 2420.1 1125.59 2420.35 1126.64 2420.82 1127.71 2421.48L1130.18 2419.71 1131.9 2420.14 1127.95 2437.16C1127.56 2438.86 1127.36 2440.19 1127.36 2441.14 1127.36 2441.85 1127.48 2442.37 1127.71 2442.69 1127.94 2443.02 1128.31 2443.18 1128.81 2443.18 1129.35 2443.18 1129.92 2442.96 1130.53 2442.52 1131.14 2442.08 1132 2441.24 1133.11 2440.01L1134.64 2441.51C1133.03 2443.23 1131.65 2444.45 1130.52 2445.18 1129.38 2445.9 1128.15 2446.27 1126.82 2446.27 1125.71 2446.27 1124.83 2445.9 1124.16 2445.17 1123.5 2444.43 1123.17 2443.46 1123.17 2442.24 1123.17 2441.25 1123.38 2440.21 1123.79 2439.1L1123.44 2438.99C1121.72 2441.49 1120.09 2443.33 1118.55 2444.49 1117.01 2445.66 1115.38 2446.24 1113.66 2446.24 1111.69 2446.24 1110.17 2445.5 1109.09 2444.01 1108 2442.52 1107.46 2440.44 1107.46 2437.75 1107.46 2434.67 1108.06 2431.71 1109.27 2428.88 1110.48 2426.04 1112.14 2423.8 1114.25 2422.16 1116.37 2420.53 1118.72 2419.71 1121.32 2419.71Z" fill-rule="evenodd"/><text fill="#000000" fill-opacity="0" font-family="Arial,Arial_MSFontService,sans-serif" font-size="26.5601" x="1107.46" y="2442.95">洧녩</text><path d="M1144.38 2437.32 1145.34 2437.32 1142.45 2450.33C1142.26 2451.1 1142.14 2451.71 1142.07 2452.16 1141.99 2452.62 1141.96 2453.03 1141.96 2453.39 1141.96 2453.89 1142.06 2454.25 1142.26 2454.47 1142.46 2454.69 1142.77 2454.8 1143.17 2454.8 1143.4 2454.8 1143.64 2454.75 1143.87 2454.66 1144.11 2454.57 1144.36 2454.43 1144.62 2454.23 1144.89 2454.04 1145.18 2453.79 1145.5 2453.48 1145.82 2453.18 1146.18 2452.81 1146.57 2452.38L1147.9 2453.67C1147.22 2454.36 1146.6 2454.94 1146.05 2455.42 1145.5 2455.89 1144.97 2456.28 1144.48 2456.58 1143.98 2456.88 1143.5 2457.09 1143.02 2457.22 1142.55 2457.35 1142.04 2457.42 1141.51 2457.42 1141.01 2457.42 1140.57 2457.33 1140.17 2457.14 1139.77 2456.96 1139.43 2456.71 1139.15 2456.39 1138.86 2456.07 1138.64 2455.69 1138.48 2455.25 1138.33 2454.81 1138.25 2454.32 1138.25 2453.78 1138.25 2453.35 1138.3 2452.82 1138.4 2452.18 1138.51 2451.54 1138.64 2450.85 1138.8 2450.1 1138.97 2449.35 1139.15 2448.57 1139.34 2447.75 1139.54 2446.93 1139.73 2446.11 1139.92 2445.31 1140.11 2444.5 1140.28 2443.72 1140.42 2442.97 1140.57 2442.22 1140.68 2441.54 1140.75 2440.93 1140.77 2440.83 1140.79 2440.73 1140.79 2440.63 1140.79 2440.53 1140.79 2440.44 1140.79 2440.37 1140.76 2439.86 1140.58 2439.49 1140.25 2439.25 1139.92 2439.02 1139.33 2438.89 1138.48 2438.86L1138.72 2437.53ZM1143.25 2429.45 1147.15 2429.45 1146.2 2433.65 1142.33 2433.65Z" fill-rule="evenodd"/><text fill="#000000" fill-opacity="0" font-family="Arial,Arial_MSFontService,sans-serif" font-size="27.9688" x="1138.25" y="2453.92">洧녰</text><path d="M1078.5 2282.62 1078.5 2080.5" stroke="#C81D31" stroke-width="4.58333" stroke-miterlimit="8" fill="none" fill-rule="evenodd"/><path d="M1042.56 2286.46 1040.5 2115.5" stroke="#C81D31" stroke-width="4.58333" stroke-miterlimit="8" fill="none" fill-rule="evenodd"/><path d="M1003.65 2285.98 1002.5 2145.5" stroke="#C81D31" stroke-width="4.58333" stroke-miterlimit="8" fill="none" fill-rule="evenodd"/><path d="M967.417 2286.5 966.5 2187.5" stroke="#C81D31" stroke-width="4.58333" stroke-miterlimit="8" fill="none" fill-rule="evenodd"/><path d="M0 0 0.6875 69.4375" stroke="#C81D31" stroke-width="4.58333" stroke-miterlimit="8" fill="none" fill-rule="evenodd" transform="matrix(1 0 0 -1 932.5 2282.94)"/><path d="M0 0 0.458333 53.8542" stroke="#C81D31" stroke-width="4.58333" stroke-miterlimit="8" fill="none" fill-rule="evenodd" transform="matrix(1 0 0 -1 902.5 2286.35)"/><path d="M2.29167-2.63845e-06 2.29202 308.921-2.29131 308.921-2.29167 2.63845e-06ZM18.0215 282.576 0.000361004 313.469-18.0208 282.576C-18.6586 281.483-18.2893 280.08-17.196 279.442-16.1028 278.804-14.6996 279.173-14.0619 280.267L1.97985 307.767-1.97914 307.767 14.0625 280.267C14.7002 279.173 16.1034 278.804 17.1967 279.442 18.2899 280.08 18.6592 281.483 18.0215 282.576Z" transform="matrix(1 0 0 -1 420.5 2923.96)"/><path d="M420.515 2921.21 745.059 2923.28 745.029 2927.87 420.485 2925.79ZM718.816 2907.39 749.594 2925.6 718.586 2943.43C717.489 2944.06 716.088 2943.68 715.457 2942.58 714.826 2941.48 715.205 2940.08 716.302 2939.45L743.904 2923.59 743.879 2927.55 716.482 2911.33C715.392 2910.68 715.032 2909.28 715.677 2908.19 716.322 2907.1 717.727 2906.74 718.816 2907.39Z"/><path d="M420.5 2794.5C423.244 2789.01 430.265 2770.41 435.51 2768.7 440.756 2767 441.967 2787.98 446.647 2786.05 451.328 2784.12 454.717 2761.51 458.753 2758.91 462.788 2756.32 462.546 2777.75 466.984 2773.15 471.423 2768.55 476.184 2739.64 481.026 2735.78 485.868 2731.93 486.272 2760.1 491.195 2754.02 496.118 2747.94 500.475 2704.2 505.721 2705.54 510.967 2706.87 512.177 2766.4 517.342 2760.69 522.507 2754.99 526.623 2688.11 531.384 2677.07 536.146 2666.02 535.661 2708.65 541.068 2705.54 546.476 2702.42 554.465 2670.25 558.5 2661.5" stroke="#262626" stroke-width="4.58333" stroke-miterlimit="8" fill="none" fill-rule="evenodd"/><path d="M420.5 2664.5 738.905 2664.5" stroke="#7F7F7F" stroke-width="4.58333" stroke-miterlimit="8" stroke-dasharray="18.3333 13.75" fill="none" fill-rule="evenodd"/><text font-family="Arial,Arial_MSFontService,sans-serif" font-weight="400" font-size="55" transform="matrix(1 0 0 1 737.229 2800)">OR</text><path d="M2.29167-2.63901e-06 2.29202 308.854-2.29131 308.854-2.29167 2.63901e-06ZM18.0215 282.509 0.000361002 313.402-18.0208 282.509C-18.6586 281.416-18.2893 280.012-17.196 279.375-16.1028 278.737-14.6996 279.106-14.0619 280.2L1.97985 307.7-1.97914 307.7 14.0625 280.2C14.7002 279.106 16.1034 278.737 17.1967 279.375 18.2899 280.012 18.6592 281.416 18.0215 282.509Z" transform="matrix(1 0 0 -1 862.5 2928.89)"/><path d="M862.515 2926.21 1186.97 2928.28 1186.94 2932.87 862.485 2930.79ZM1160.72 2912.39 1191.5 2930.6 1160.49 2948.43C1159.39 2949.06 1157.99 2948.68 1157.36 2947.58 1156.73 2946.48 1157.11 2945.08 1158.21 2944.45L1185.81 2928.59 1185.78 2932.55 1158.39 2916.33C1157.3 2915.68 1156.94 2914.28 1157.58 2913.19 1158.23 2912.1 1159.63 2911.74 1160.72 2912.39Z"/><path d="M862.5 2930.5C867.868 2919.73 881.605 2883.22 891.868 2879.87 902.132 2876.52 904.5 2917.7 913.658 2913.91 922.816 2910.13 929.447 2865.76 937.342 2860.67 945.237 2855.58 944.763 2897.62 953.447 2888.6 962.132 2879.58 971.447 2822.84 980.921 2815.28 990.395 2807.71 991.184 2862.99 1000.82 2851.07 1010.45 2839.14 1018.97 2753.3 1029.24 2755.92 1039.5 2758.54 1041.87 2875.36 1051.97 2864.16 1062.08 2852.96 1070.13 2721.73 1079.45 2700.05 1088.76 2678.37 1087.82 2762.03 1098.39 2755.92 1108.97 2749.81 1124.61 2686.67 1132.5 2669.5" stroke="#BFBFBF" stroke-width="4.58333" stroke-miterlimit="8" fill="none" fill-rule="evenodd"/><path d="M863.5 2669.5 1181.81 2669.5" stroke="#7F7F7F" stroke-width="4.58333" stroke-miterlimit="8" stroke-dasharray="18.3333 13.75" fill="none" fill-rule="evenodd"/><path d="M0 134C5.20936 128.473 18.5392 109.725 28.4982 108.007 38.4573 106.289 40.7555 127.427 49.6421 125.485 58.5286 123.543 64.9637 100.761 72.6245 98.1472 80.2854 95.5329 79.8257 117.119 88.2526 112.488 96.6795 107.857 105.719 78.7269 114.912 74.8428 124.105 70.9588 124.871 99.3423 134.218 93.2174 143.564 87.0926 151.837 43.0234 161.796 44.3679 171.756 45.7124 174.054 105.691 183.86 99.9398 193.665 94.1885 201.479 26.815 210.519 15.6856 219.559 4.5563 218.64 47.505 228.905 44.3679 239.171 41.2308 254.339 8.81383 262 0" stroke="#BFBFBF" stroke-width="4.58333" stroke-miterlimit="8" fill="none" fill-rule="evenodd" transform="matrix(1 0 0 -1 420.5 2928.5)"/><path d="M863.5 2923.5C865.667 2912.69 871.213 2876.04 875.356 2872.68 879.499 2869.32 880.456 2910.65 884.153 2906.85 887.85 2903.05 890.527 2858.51 893.714 2853.4 896.901 2848.29 896.71 2890.49 900.216 2881.44 903.722 2872.39 907.482 2815.43 911.307 2807.83 915.132 2800.24 915.45 2855.74 919.339 2843.76 923.227 2831.79 926.669 2745.62 930.812 2748.25 934.956 2750.88 935.912 2868.15 939.991 2856.9 944.071 2845.66 947.322 2713.93 951.082 2692.17 954.843 2670.41 954.461 2754.38 958.732 2748.25 963.002 2742.12 969.313 2678.73 972.5 2661.5" stroke="#262626" stroke-width="4.58333" stroke-miterlimit="8" fill="none" fill-rule="evenodd"/><path d="M863.5 2922.5C866.741 2911.73 875.034 2875.22 881.23 2871.87 887.426 2868.53 888.856 2909.7 894.384 2905.91 899.913 2902.13 903.916 2857.76 908.682 2852.67 913.448 2847.58 913.163 2889.62 918.405 2880.6 923.648 2871.58 929.272 2814.84 934.991 2807.28 940.711 2799.71 941.187 2855 947.002 2843.07 952.816 2831.14 957.964 2745.3 964.16 2747.92 970.356 2750.54 971.785 2867.36 977.886 2856.16 983.987 2844.96 988.848 2713.73 994.472 2692.05 1000.1 2670.37 999.524 2754.03 1005.91 2747.92 1012.3 2741.81 1021.73 2678.67 1026.5 2661.5" stroke="#767171" stroke-width="4.58333" stroke-miterlimit="8" fill="none" fill-rule="evenodd"/><path d="M412.053 1884.81 528.112 1991.74 525.006 1995.11 408.947 1888.19ZM519.394 1962.32 529.904 1996.51 494.972 1988.83C493.736 1988.56 492.954 1987.33 493.226 1986.1 493.498 1984.86 494.72 1984.08 495.956 1984.35L527.051 1991.19 524.368 1994.1 515.013 1963.67C514.641 1962.46 515.32 1961.18 516.53 1960.8 517.74 1960.43 519.022 1961.11 519.394 1962.32Z" fill="#7F7F7F"/><path d="M1.16851-1.97138 173.953 100.444 171.616 104.387-1.16851 1.97138ZM159.31 73.4797 176.697 104.735 140.932 104.485C139.666 104.476 138.648 103.443 138.656 102.177 138.665 100.911 139.698 99.8926 140.964 99.9015L172.8 100.124 170.782 103.53 155.305 75.7078C154.689 74.6018 155.087 73.2064 156.193 72.5911 157.299 71.9759 158.695 72.3737 159.31 73.4797Z" fill="#7F7F7F" transform="matrix(-1 0 0 1 1003.19 2471.5)"/><path d="M812.792 2933.5 812.792 3038.73 808.209 3038.73 808.208 2933.5ZM828.521 3012.39 810.5 3043.28 792.479 3012.39C791.841 3011.29 792.211 3009.89 793.304 3009.25 794.397 3008.62 795.8 3008.99 796.438 3010.08L812.48 3037.58 808.521 3037.58 824.562 3010.08C825.2 3008.99 826.603 3008.62 827.697 3009.25 828.79 3009.89 829.159 3011.29 828.521 3012.39Z" fill="#7F7F7F"/><text font-family="Arial,Arial_MSFontService,sans-serif" font-weight="400" font-size="55" transform="matrix(1 0 0 1 503.937 3174)">=</text><path d="M583.5 3114C583.5 3102.68 592.678 3093.5 604 3093.5L1084 3093.5C1095.32 3093.5 1104.5 3102.68 1104.5 3114L1104.5 3196C1104.5 3207.32 1095.32 3216.5 1084 3216.5L604 3216.5C592.678 3216.5 583.5 3207.32 583.5 3196Z" stroke="#000000" stroke-width="4.58333" stroke-miterlimit="8" fill="#D9D9D9" fill-rule="evenodd"/><text font-family="Arial,Arial_MSFontService,sans-serif" font-weight="400" font-size="55" transform="matrix(1 0 0 1 671.481 3174)">Decision Time</text><path d="M1181.5 3112.17C1181.5 3100.75 1190.75 3091.5 1202.17 3091.5L1730.83 3091.5C1742.25 3091.5 1751.5 3100.75 1751.5 3112.17L1751.5 3194.83C1751.5 3206.25 1742.25 3215.5 1730.83 3215.5L1202.17 3215.5C1190.75 3215.5 1181.5 3206.25 1181.5 3194.83Z" stroke="#000000" stroke-width="4.58333" stroke-miterlimit="8" fill="#D9D9D9" fill-rule="evenodd"/><text font-family="Arial,Arial_MSFontService,sans-serif" font-weight="400" font-size="55" transform="matrix(1 0 0 1 1242.16 3173)">Non</text><text font-family="Arial,Arial_MSFontService,sans-serif" font-weight="400" font-size="55" transform="matrix(1 0 0 1 1342.42 3173)">-</text><text font-family="Arial,Arial_MSFontService,sans-serif" font-weight="400" font-size="55" transform="matrix(1 0 0 1 1360.76 3173)">Decision Time</text><text font-family="Arial,Arial_MSFontService,sans-serif" font-weight="400" font-size="55" transform="matrix(1 0 0 1 1125.21 3174)">+</text><path d="M1.48905-1.74197 124.311 103.247 121.333 106.731-1.48905 1.74197ZM114.505 74.1724 126.279 107.944 91.0862 101.569C89.8409 101.344 89.0142 100.151 89.2398 98.9059 89.4654 97.6605 90.6578 96.8338 91.9032 97.0594L123.23 102.734 120.658 105.744 110.177 75.6812C109.761 74.486 110.392 73.1795 111.587 72.7628 112.782 72.3462 114.089 72.9773 114.505 74.1724Z" fill="#7F7F7F" transform="matrix(-1 0 0 1 1666.77 1886.5)"/><path d="M1318.05 1884.81 1434.11 1991.74 1431.01 1995.11 1314.95 1888.19ZM1425.39 1962.32 1435.9 1996.51 1400.97 1988.83C1399.74 1988.56 1398.95 1987.33 1399.23 1986.1 1399.5 1984.86 1400.72 1984.08 1401.96 1984.35L1433.05 1991.19 1430.37 1994.1 1421.01 1963.67C1420.64 1962.46 1421.32 1961.18 1422.53 1960.8 1423.74 1960.43 1425.02 1961.11 1425.39 1962.32Z" fill="#7F7F7F"/><path d="M576.78 2469.6 725.183 2569.5 722.623 2573.3 574.22 2473.4ZM712.112 2541.74 727.675 2573.94 691.984 2571.64C690.721 2571.56 689.763 2570.47 689.845 2569.21 689.926 2567.94 691.016 2566.99 692.279 2567.07L724.05 2569.12 721.839 2572.4 707.985 2543.74C707.434 2542.6 707.912 2541.23 709.051 2540.68 710.191 2540.12 711.561 2540.6 712.112 2541.74Z" fill="#7F7F7F"/><path d="M1.48905-1.74197 124.311 103.247 121.333 106.731-1.48905 1.74197ZM114.505 74.1724 126.279 107.944 91.0862 101.569C89.8409 101.344 89.0142 100.151 89.2398 98.9059 89.4654 97.6605 90.6578 96.8338 91.9032 97.0594L123.23 102.734 120.658 105.744 110.177 75.6812C109.761 74.486 110.392 73.1795 111.587 72.7628 112.782 72.3462 114.089 72.9773 114.505 74.1724Z" fill="#7F7F7F" transform="matrix(-1 0 0 1 759.771 1886.5)"/><path d="M2.29167-3.01131e-06 2.29202 270.109-2.29131 270.109-2.29167 3.01131e-06ZM18.0215 243.764 0.000361207 274.657-18.0208 243.764C-18.6586 242.671-18.2893 241.267-17.1961 240.63-16.1028 239.992-14.6996 240.361-14.0619 241.455L1.97985 268.954-1.97914 268.954 14.0625 241.454C14.7002 240.361 16.1034 239.992 17.1967 240.63 18.2899 241.267 18.6592 242.671 18.0215 243.764Z" transform="matrix(1 0 0 -1 1342.5 2900.15)"/><path d="M1342.51 2898.21 1626.32 2899.99 1626.29 2904.57 1342.49 2902.79ZM1600.07 2884.09 1630.85 2902.31 1599.85 2920.13C1598.75 2920.77 1597.35 2920.39 1596.72 2919.29 1596.09 2918.19 1596.47 2916.79 1597.56 2916.16L1625.16 2900.29 1625.14 2904.25 1597.74 2888.04C1596.65 2887.39 1596.29 2885.99 1596.93 2884.9 1597.58 2883.81 1598.98 2883.45 1600.07 2884.09Z"/><path d="M1342.5 2899.76C1364.56 2877.41 1416.5 2797.96 1464.7 2798.5 1512.9 2799.05 1555.33 2881.52 1583.5 2902.5" stroke="#FF0000" stroke-width="4.58333" stroke-miterlimit="8" fill="none" fill-rule="evenodd"/><text font-family="Arial,Arial_MSFontService,sans-serif" font-weight="400" font-size="55" transform="matrix(1 0 0 1 1391.91 2995)">Noise </text><path d="M1566.27 2973.08C1563.87 2973.15 1561.72 2973.84 1559.82 2975.16 1557.92 2976.48 1556.45 2978.24 1555.4 2980.46 1554.36 2982.68 1553.83 2985.15 1553.83 2987.85 1553.83 2989.25 1554.06 2990.37 1554.52 2991.22 1554.97 2992.07 1555.54 2992.66 1556.22 2992.98 1556.9 2993.3 1557.64 2993.46 1558.43 2993.46 1560.23 2993.46 1561.8 2992.87 1563.12 2991.69 1564.45 2990.51 1565.52 2988.71 1566.33 2986.29 1567.15 2983.87 1567.56 2981.53 1567.56 2979.26 1567.56 2976.8 1567.13 2974.74 1566.27 2973.08ZM1570.4 2969.45 1578.94 2969.45 1578.14 2973 1569.36 2973 1569.3 2973.21C1570.32 2974.43 1571.06 2975.66 1571.5 2976.89 1571.95 2978.13 1572.18 2979.48 1572.18 2980.95 1572.18 2983.62 1571.6 2986.09 1570.46 2988.37 1569.31 2990.66 1567.71 2992.42 1565.65 2993.68 1563.59 2994.93 1561.26 2995.56 1558.67 2995.56 1555.71 2995.56 1553.46 2994.76 1551.91 2993.18 1550.36 2991.6 1549.59 2989.35 1549.59 2986.45 1549.59 2984.47 1549.89 2982.58 1550.49 2980.8 1551.09 2979.02 1551.98 2977.38 1553.15 2975.89 1554.32 2974.39 1555.65 2973.18 1557.14 2972.25 1558.62 2971.32 1560.39 2970.62 1562.45 2970.15 1564.51 2969.69 1567.16 2969.45 1570.4 2969.45Z" fill-rule="evenodd"/><text fill="#000000" fill-opacity="0" font-family="Arial,Arial_MSFontService,sans-serif" font-size="26.1035" x="1549.59" y="2992.29">洧랥</text><path d="M1507.22 2526.77C1549.12 2572.13 1685.98 2676.81 1706.88 2780.12 1727.78 2883.43 1624.5 2985.63 1611.89 3043.21" stroke="#7F7F7F" stroke-width="4.58333" stroke-miterlimit="8" fill="none" fill-rule="evenodd"/><path d="M0.0133493-2.29163 113.497-1.63056 113.47 2.9527-0.0133493 2.29163ZM87.2435-17.5133 118.031 0.687562 87.0336 18.5285C85.9366 19.1598 84.5356 18.7824 83.9042 17.6854 83.2729 16.5885 83.6503 15.1874 84.7473 14.5561L112.34-1.32512 112.317 2.6338 84.9111-13.5678C83.8216-14.2119 83.4605-15.6172 84.1046-16.7067 84.7487-17.7962 86.154-18.1573 87.2435-17.5133Z" fill="#7F7F7F" transform="matrix(-1 0 0 1 1323.52 2794.5)"/><path d="M2.03321-1.05727 5.89815 6.37532 1.83174 8.48985-2.03321 1.05727ZM7.69915-24.2555 5.96323 11.4678-24.2782-7.62729C-25.3484-8.30302-25.6681-9.71835-24.9924-10.7885-24.3167-11.8587-22.9014-12.1785-21.8312-11.5027L5.08846 5.49487 1.57598 7.32136 3.12122-24.478C3.18265-25.7421 4.25725-26.7171 5.52141-26.6557 6.78557-26.5943 7.76058-25.5197 7.69915-24.2555Z" fill="#7F7F7F" transform="matrix(-1 0 0 1 1610.46 3040.5)"/><path d="M798.5 3306.17C798.5 3294.75 807.753 3285.5 819.167 3285.5L1638.83 3285.5C1650.25 3285.5 1659.5 3294.75 1659.5 3306.17L1659.5 3388.83C1659.5 3400.25 1650.25 3409.5 1638.83 3409.5L819.167 3409.5C807.753 3409.5 798.5 3400.25 798.5 3388.83Z" stroke="#000000" stroke-width="4.58333" stroke-miterlimit="8" fill="#D9D9D9" fill-rule="evenodd"/><text font-family="Arial,Arial_MSFontService,sans-serif" font-weight="400" font-size="55" transform="matrix(1 0 0 1 883.953 3367)">Number of correct responses </text><path d="M652.5 3438.5 1771.98 3438.5" stroke="#000000" stroke-width="4.58333" stroke-miterlimit="8" fill="none" fill-rule="evenodd"/><path d="M848.5 3486.17C848.5 3474.75 857.753 3465.5 869.167 3465.5L1562.83 3465.5C1574.25 3465.5 1583.5 3474.75 1583.5 3486.17L1583.5 3568.83C1583.5 3580.25 1574.25 3589.5 1562.83 3589.5L869.167 3589.5C857.753 3589.5 848.5 3580.25 848.5 3568.83Z" stroke="#000000" stroke-width="4.58333" stroke-miterlimit="8" fill="#D9D9D9" fill-rule="evenodd"/><text font-family="Arial,Arial_MSFontService,sans-serif" font-weight="400" font-size="55" transform="matrix(1 0 0 1 1032.06 3554)">Total responses</text><path d="M1012.79 1674.49 1013.7 1980.25 1009.11 1980.26 1008.21 1674.51ZM1029.35 1953.86 1011.42 1984.8 993.304 1953.96C992.664 1952.87 993.029 1951.47 994.12 1950.83 995.211 1950.18 996.616 1950.55 997.257 1951.64L1013.38 1979.09 1009.42 1979.11 1025.38 1951.56C1026.02 1950.46 1027.42 1950.09 1028.51 1950.72 1029.61 1951.36 1029.98 1952.76 1029.35 1953.86Z" fill="#7F7F7F"/><text font-family="Arial,Arial_MSFontService,sans-serif" font-weight="700" font-size="64" transform="matrix(1 0 0 1 344.678 1297)">Graphical Illustration of Simulation Workflow</text><text font-family="Arial,Arial_MSFontService,sans-serif" font-weight="700" font-size="64" transform="matrix(1 0 0 1 2945.03 1297)">R code for Simulation Workflow</text><text font-family="Arial,Arial_MSFontService,sans-serif" font-weight="700" font-size="64" transform="matrix(1 0 0 1 1992.37 1297)">Simulation Modules</text><text font-family="Arial,Arial_MSFontService,sans-serif" font-weight="400" font-size="55" transform="matrix(1 0 0 1 528.458 2997)">ddm</text><text font-family="Arial,Arial_MSFontService,sans-serif" font-weight="400" font-size="55" transform="matrix(1 0 0 1 892.604 2997)">rdm or lca</text><path d="M1922.13 1782.25 1854.02 1781.82 1854.05 1777.24 1922.16 1777.67ZM1880.27 1797.72 1849.49 1779.5 1880.5 1761.67C1881.59 1761.04 1882.99 1761.42 1883.62 1762.52 1884.26 1763.62 1883.88 1765.02 1882.78 1765.65L1855.18 1781.52 1855.2 1777.56 1882.6 1793.77C1883.69 1794.42 1884.05 1795.82 1883.41 1796.91 1882.76 1798 1881.36 1798.36 1880.27 1797.72Z" fill="#C65F10"/><path d="M0.912297-2.10225 312.539 133.132 310.714 137.337-0.912297 2.10225ZM294.636 108.216 315.801 137.046 280.287 141.279C279.031 141.429 277.89 140.532 277.741 139.275 277.591 138.018 278.488 136.878 279.745 136.728L311.358 132.96 309.782 136.592 290.941 110.928C290.192 109.908 290.412 108.474 291.432 107.725 292.452 106.976 293.887 107.196 294.636 108.216Z" fill="#C65F10" transform="matrix(-1 0 0 1 1922.29 2053.5)"/><path d="M0.0014541-2.29167 717.805-1.83621 717.802 2.74713-0.0014541 2.29167ZM691.462-17.5824 722.344 0.45834 691.439 18.4599C690.346 19.0969 688.943 18.7268 688.305 17.6331 687.668 16.5395 688.039 15.1365 689.132 14.4994L716.642-1.52477 716.64 2.43421 689.15-13.6249C688.057-14.2633 687.689-15.6668 688.327-16.7596 688.966-17.8525 690.369-18.2208 691.462-17.5824Z" fill="#C65F10" transform="matrix(-1 0 0 1 1909.83 2247.5)"/><path d="M1.26532-1.91068 393.716 257.983 391.185 261.804-1.26532 1.91068ZM380.431 230.319 396.238 262.402 360.53 260.369C359.267 260.298 358.301 259.215 358.373 257.951 358.445 256.688 359.527 255.722 360.791 255.794L392.576 257.603 390.39 260.903 376.319 232.345C375.76 231.209 376.227 229.836 377.362 229.276 378.497 228.717 379.871 229.184 380.431 230.319Z" fill="#C65F10" transform="matrix(-1 0 0 1 1924.73 2455.5)"/></g></svg>