<svg width="3082" height="1775" xmlns="http://www.w3.org/2000/svg" xmlns:xlink="http://www.w3.org/1999/xlink" xml:space="preserve" overflow="hidden"><defs><clipPath id="clip0"><rect x="117" y="454" width="3082" height="1775"/></clipPath></defs><g clip-path="url(#clip0)" transform="translate(-117 -454)"><rect x="117" y="462" width="3082" height="1767" fill="#FFFFFF"/><path d="M144.5 1502.67C144.5 1433.54 200.54 1377.5 269.669 1377.5L3001.33 1377.5C3070.46 1377.5 3126.5 1433.54 3126.5 1502.67L3126.5 2003.33C3126.5 2072.46 3070.46 2128.5 3001.33 2128.5L269.669 2128.5C200.54 2128.5 144.5 2072.46 144.5 2003.33Z" stroke="#588E31" stroke-width="6.875" stroke-miterlimit="8" stroke-dasharray="27.5 20.625" fill="none" fill-rule="evenodd"/><path d="M1265.5 755.334C1265.5 745.484 1273.48 737.5 1283.33 737.5L1987.67 737.5C1997.52 737.5 2005.5 745.484 2005.5 755.334L2005.5 826.666C2005.5 836.516 1997.52 844.5 1987.67 844.5L1283.33 844.5C1273.48 844.5 1265.5 836.516 1265.5 826.666Z" stroke="#000000" stroke-width="4.58333" stroke-miterlimit="8" fill="#F5B482" fill-rule="evenodd"/><text font-family="Arial,Arial_MSFontService,sans-serif" font-weight="400" font-size="55" transform="matrix(1 0 0 1 1432.35 816)">Prior distibutions</text><path d="M2.29166-0.00642821 2.73726 158.852-1.84605 158.865-2.29166 0.00642821ZM18.3928 132.463 0.458363 163.406-17.6494 132.564C-18.2902 131.472-17.9248 130.068-16.8334 129.427-15.7419 128.786-14.3377 129.152-13.6969 130.243L2.42185 157.698-1.53712 157.709 14.4273 130.164C15.062 129.069 16.4642 128.696 17.5592 129.331 18.6542 129.965 19.0275 131.368 18.3928 132.463Z" fill="#7F7F7F" transform="matrix(-1 0 0 1 1635.96 888.5)"/><path d="M1265.5 1100.33C1265.5 1090.48 1273.48 1082.5 1283.33 1082.5L1987.67 1082.5C1997.52 1082.5 2005.5 1090.48 2005.5 1100.33L2005.5 1171.67C2005.5 1181.52 1997.52 1189.5 1987.67 1189.5L1283.33 1189.5C1273.48 1189.5 1265.5 1181.52 1265.5 1171.67Z" stroke="#000000" stroke-width="4.58333" stroke-miterlimit="8" fill="#F5B482" fill-rule="evenodd"/><text font-family="Arial,Arial_MSFontService,sans-serif" font-weight="400" font-size="55" transform="matrix(1 0 0 1 1404.85 1159)">Generative models</text><path d="M993.505 1143.21 1210.11 1143.66 1210.1 1148.24 993.495 1147.79ZM1183.8 1127.87 1214.66 1145.96 1183.73 1163.92C1182.63 1164.55 1181.23 1164.18 1180.59 1163.08 1179.96 1161.99 1180.33 1160.59 1181.42 1159.95L1208.96 1143.97 1208.95 1147.93 1181.48 1131.83C1180.39 1131.19 1180.02 1129.78 1180.66 1128.69 1181.3 1127.6 1182.71 1127.23 1183.8 1127.87Z" fill="#7F7F7F"/><path d="M214.5 1101.33C214.5 1091.48 222.484 1083.5 232.334 1083.5L937.666 1083.5C947.516 1083.5 955.5 1091.48 955.5 1101.33L955.5 1172.67C955.5 1182.52 947.516 1190.5 937.666 1190.5L232.334 1190.5C222.484 1190.5 214.5 1182.52 214.5 1172.67Z" stroke="#000000" stroke-width="4.58333" stroke-miterlimit="8" fill="#F5B482" fill-rule="evenodd"/><text font-family="Arial,Arial_MSFontService,sans-serif" font-weight="400" font-size="55" transform="matrix(1 0 0 1 339.167 1160)">Theoritical concerns</text><path d="M2289.5 1101.33C2289.5 1091.48 2297.48 1083.5 2307.33 1083.5L3012.67 1083.5C3022.52 1083.5 3030.5 1091.48 3030.5 1101.33L3030.5 1172.67C3030.5 1182.52 3022.52 1190.5 3012.67 1190.5L2307.33 1190.5C2297.48 1190.5 2289.5 1182.52 2289.5 1172.67Z" stroke="#000000" stroke-width="4.58333" stroke-miterlimit="8" fill="#F5B482" fill-rule="evenodd"/><text font-family="Arial,Arial_MSFontService,sans-serif" font-weight="400" font-size="55" transform="matrix(1 0 0 1 2476.72 1160)">Simulated data</text><path d="M2037.5 1143.21 2254.11 1143.66 2254.1 1148.24 2037.5 1147.79ZM2227.8 1127.87 2258.66 1145.96 2227.73 1163.92C2226.63 1164.55 2225.23 1164.18 2224.59 1163.08 2223.96 1161.99 2224.33 1160.59 2225.42 1159.95L2252.96 1143.97 2252.95 1147.93 2225.48 1131.83C2224.39 1131.19 2224.02 1129.78 2224.66 1128.69 2225.3 1127.6 2226.71 1127.23 2227.8 1127.87Z" fill="#7F7F7F"/><path d="M2.29166-0.00642821 2.73726 158.852-1.84605 158.865-2.29166 0.00642821ZM18.3928 132.463 0.458363 163.406-17.6494 132.564C-18.2902 131.472-17.9248 130.068-16.8334 129.427-15.7419 128.786-14.3377 129.152-13.6969 130.243L2.42185 157.698-1.53712 157.709 14.4273 130.164C15.062 129.069 16.4642 128.696 17.5592 129.331 18.6542 129.965 19.0275 131.368 18.3928 132.463Z" fill="#7F7F7F" transform="matrix(-1 0 0 1 2659.96 1238.5)"/><path d="M2289.5 1459.33C2289.5 1449.48 2297.48 1441.5 2307.33 1441.5L3012.67 1441.5C3022.52 1441.5 3030.5 1449.48 3030.5 1459.33L3030.5 1530.67C3030.5 1540.52 3022.52 1548.5 3012.67 1548.5L2307.33 1548.5C2297.48 1548.5 2289.5 1540.52 2289.5 1530.67Z" stroke="#000000" stroke-width="4.58333" stroke-miterlimit="8" fill="#F5B482" fill-rule="evenodd"/><text font-family="Arial,Arial_MSFontService,sans-serif" font-weight="400" font-size="55" transform="matrix(1 0 0 1 2429.11 1518)">Summary statistics</text><path d="M2258.64 1497.25 2042.03 1496.8 2042.04 1492.22 2258.65 1492.67ZM2068.35 1512.59 2037.49 1494.5 2068.42 1476.54C2069.51 1475.91 2070.92 1476.28 2071.55 1477.37 2072.19 1478.47 2071.82 1479.87 2070.72 1480.51L2043.19 1496.49 2043.2 1492.53 2070.66 1508.63C2071.75 1509.27 2072.12 1510.68 2071.48 1511.77 2070.84 1512.86 2069.44 1513.23 2068.35 1512.59Z" fill="#7F7F7F"/><path d="M1265.5 1459.33C1265.5 1449.48 1273.48 1441.5 1283.33 1441.5L1988.67 1441.5C1998.52 1441.5 2006.5 1449.48 2006.5 1459.33L2006.5 1530.67C2006.5 1540.52 1998.52 1548.5 1988.67 1548.5L1283.33 1548.5C1273.48 1548.5 1265.5 1540.52 1265.5 1530.67Z" stroke="#000000" stroke-width="4.58333" stroke-miterlimit="8" fill="#F5B482" fill-rule="evenodd"/><text font-family="Arial,Arial_MSFontService,sans-serif" font-weight="400" font-size="55" transform="matrix(1 0 0 1 1374.43 1518)">Parameter estimation</text><path d="M1214.64 1497.25 998.034 1496.8 998.043 1492.22 1214.65 1492.67ZM1024.35 1512.59 993.489 1494.5 1024.42 1476.54C1025.51 1475.91 1026.92 1476.28 1027.55 1477.37 1028.19 1478.47 1027.82 1479.87 1026.72 1480.51L999.188 1496.49 999.196 1492.53 1026.66 1508.63C1027.75 1509.27 1028.12 1510.68 1027.48 1511.77 1026.84 1512.86 1025.44 1513.23 1024.35 1512.59Z" fill="#7F7F7F"/><path d="M214.5 1459.33C214.5 1449.48 222.484 1441.5 232.334 1441.5L937.666 1441.5C947.516 1441.5 955.5 1449.48 955.5 1459.33L955.5 1530.67C955.5 1540.52 947.516 1548.5 937.666 1548.5L232.334 1548.5C222.484 1548.5 214.5 1540.52 214.5 1530.67Z" stroke="#000000" stroke-width="4.58333" stroke-miterlimit="8" fill="#F5B482" fill-rule="evenodd"/><text font-family="Arial,Arial_MSFontService,sans-serif" font-weight="400" font-size="55" transform="matrix(1 0 0 1 291.557 1518)">Parameter recovery test</text><path d="M214.5 1835.17C214.5 1825.41 222.41 1817.5 232.167 1817.5L937.833 1817.5C947.59 1817.5 955.5 1825.41 955.5 1835.17L955.5 1905.83C955.5 1915.59 947.59 1923.5 937.833 1923.5L232.167 1923.5C222.41 1923.5 214.5 1915.59 214.5 1905.83Z" stroke="#000000" stroke-width="4.58333" stroke-miterlimit="8" fill="#F5B482" fill-rule="evenodd"/><text font-family="Arial,Arial_MSFontService,sans-serif" font-weight="400" font-size="55" transform="matrix(1 0 0 1 268.984 1893)">Posteiror prediction check</text><path d="M1265.5 1833.17C1265.5 1823.41 1273.41 1815.5 1283.17 1815.5L1988.83 1815.5C1998.59 1815.5 2006.5 1823.41 2006.5 1833.17L2006.5 1903.83C2006.5 1913.59 1998.59 1921.5 1988.83 1921.5L1283.17 1921.5C1273.41 1921.5 1265.5 1913.59 1265.5 1903.83Z" stroke="#000000" stroke-width="4.58333" stroke-miterlimit="8" fill="#FED961" fill-rule="evenodd"/><text font-family="Arial,Arial_MSFontService,sans-serif" font-weight="400" font-size="55" transform="matrix(1 0 0 1 1455.21 1893)">Observed data</text><path d="M1214.64 1877.25 998.034 1876.8 998.043 1872.22 1214.65 1872.67ZM1024.35 1892.59 993.489 1874.5 1024.42 1856.54C1025.51 1855.91 1026.92 1856.28 1027.55 1857.37 1028.19 1858.47 1027.82 1859.87 1026.72 1860.51L999.188 1876.49 999.196 1872.53 1026.66 1888.63C1027.75 1889.27 1028.12 1890.67 1027.48 1891.77 1026.84 1892.86 1025.44 1893.23 1024.35 1892.59Z" fill="#7F7F7F"/><path d="M1634.67 1767.9 1634.22 1609.04 1638.8 1609.03 1639.25 1767.89ZM1618.57 1635.43 1636.5 1604.49 1654.61 1635.33C1655.25 1636.42 1654.88 1637.83 1653.79 1638.47 1652.7 1639.11 1651.3 1638.74 1650.66 1637.65L1634.54 1610.2 1638.5 1610.19 1622.53 1637.73C1621.9 1638.83 1620.49 1639.2 1619.4 1638.57 1618.3 1637.93 1617.93 1636.53 1618.57 1635.43Z" fill="#7F7F7F"/><path d="M144.5 774.835C144.5 719.974 188.974 675.5 243.835 675.5L3027.16 675.5C3082.03 675.5 3126.5 719.974 3126.5 774.835L3126.5 1172.17C3126.5 1227.03 3082.03 1271.5 3027.16 1271.5L243.835 1271.5C188.974 1271.5 144.5 1227.03 144.5 1172.17Z" stroke="#FF0000" stroke-width="6.875" stroke-miterlimit="8" stroke-dasharray="27.5 20.625" fill="none" fill-rule="evenodd"/><text fill="#FF0000" font-family="Calibri,Calibri_MSFontService,sans-serif" font-weight="400" font-size="83" transform="matrix(1 0 0 1 247.042 792)">Simulation engine</text><path d="M2.29166-0.00642821 2.73726 158.852-1.84605 158.865-2.29166 0.00642821ZM18.3928 132.463 0.458363 163.406-17.6494 132.564C-18.2902 131.472-17.9248 130.068-16.8334 129.427-15.7419 128.786-14.3377 129.152-13.6969 130.243L2.42185 157.698-1.53712 157.709 14.4273 130.164C15.062 129.069 16.4642 128.696 17.5592 129.331 18.6542 129.965 19.0275 131.368 18.3928 132.463Z" fill="#7F7F7F" transform="matrix(-1 0 0 1 585.958 1604.5)"/><path d="M2289.5 1835.17C2289.5 1825.41 2297.41 1817.5 2307.17 1817.5L3012.83 1817.5C3022.59 1817.5 3030.5 1825.41 3030.5 1835.17L3030.5 1905.83C3030.5 1915.59 3022.59 1923.5 3012.83 1923.5L2307.17 1923.5C2297.41 1923.5 2289.5 1915.59 2289.5 1905.83Z" stroke="#000000" stroke-width="4.58333" stroke-miterlimit="8" fill="#F5B482" fill-rule="evenodd"/><text font-family="Arial,Arial_MSFontService,sans-serif" font-weight="400" font-size="55" transform="matrix(1 0 0 1 2435.75 1893)">Model comparsion</text><path d="M2.29166-0.00642821 2.73726 158.852-1.84605 158.865-2.29166 0.00642821ZM18.3928 132.463 0.458363 163.406-17.6494 132.564C-18.2902 131.472-17.9248 130.068-16.8334 129.427-15.7419 128.786-14.3377 129.152-13.6969 130.243L2.42185 157.698-1.53712 157.709 14.4273 130.164C15.062 129.069 16.4642 128.696 17.5592 129.331 18.6542 129.965 19.0275 131.368 18.3928 132.463Z" fill="#7F7F7F" transform="matrix(-1 0 0 1 2659.96 1604.5)"/><path d="M2037.5 1871.21 2254.11 1871.66 2254.1 1876.24 2037.5 1875.79ZM2227.8 1855.87 2258.66 1873.96 2227.73 1891.92C2226.63 1892.55 2225.23 1892.18 2224.59 1891.08 2223.96 1889.99 2224.33 1888.59 2225.42 1887.95L2252.96 1871.97 2252.95 1875.93 2225.48 1859.83C2224.39 1859.19 2224.02 1857.78 2224.66 1856.69 2225.3 1855.6 2226.71 1855.23 2227.8 1855.87Z" fill="#7F7F7F"/><text font-family="Calibri,Calibri_MSFontService,sans-serif" font-weight="400" font-size="83" transform="matrix(1 0 0 1 955.167 556)">A Standard Workflow in</text><text font-family="Calibri,Calibri_MSFontService,sans-serif" font-weight="400" font-size="83" transform="matrix(1 0 0 1 1767.95 556)">the</text><text font-family="Calibri,Calibri_MSFontService,sans-serif" font-style="italic" font-weight="400" font-size="83" transform="matrix(1 0 0 1 1899.15 556)">eam</text><text font-family="Calibri,Calibri_MSFontService,sans-serif" font-weight="400" font-size="83" transform="matrix(1 0 0 1 2065.3 556)">Package</text><text fill="#588E31" font-family="Calibri,Calibri_MSFontService,sans-serif" font-weight="400" font-size="83" transform="matrix(1 0 0 1 2123.46 2073)">Simulation based inference</text></g></svg>